<?xml version="1.0" standalone="no"?>
<!DOCTYPE svg PUBLIC "-//W3C//DTD SVG 20010904//EN"
 "http://www.w3.org/TR/2001/REC-SVG-20010904/DTD/svg10.dtd">
<svg version="1.0" xmlns="http://www.w3.org/2000/svg"
 width="604.000000pt" height="899.000000pt" viewBox="0 0 604.000000 899.000000"
 preserveAspectRatio="xMidYMid meet">

<g transform="translate(0.000000,899.000000) scale(0.100000,-0.100000)"
fill="#3f723f" stroke="none">
<path d="M0 8940 c0 -54 4 -58 31 -34 16 14 22 12 75 -26 l59 -40 28 30 c15
17 27 37 27 45 0 8 5 15 10 15 6 0 10 5 10 11 0 6 7 18 16 27 12 12 13 17 4
20 -7 3 -17 -2 -22 -9 -7 -11 -11 -11 -15 -1 -3 8 -28 12 -73 12 -45 0 -70 -4
-73 -12 -4 -10 -6 -10 -6 0 -1 7 -15 12 -36 12 l-35 0 0 -50z m180 10 c0 -11
-4 -20 -10 -20 -5 0 -10 9 -10 20 0 11 5 20 10 20 6 0 10 -9 10 -20z"/>
<path d="M758 8983 c7 -3 16 -2 19 1 4 3 -2 6 -13 5 -11 0 -14 -3 -6 -6z"/>
<path d="M835 8980 c-10 -16 5 -31 24 -25 9 3 53 0 96 -6 146 -19 245 -8 245
28 0 16 -355 19 -365 3z"/>
<path d="M1360 8978 c-19 -6 -50 -11 -67 -11 -18 0 -33 -4 -33 -8 0 -5 -6 -6
-14 -3 -7 3 -22 -5 -32 -18 -30 -37 -66 -58 -101 -58 -17 0 -35 -4 -38 -10
-11 -17 -37 -11 -61 16 l-24 25 0 -55 c0 -30 5 -77 12 -105 7 -33 8 -55 2 -61
-6 -6 -38 -13 -72 -16 l-62 -7 0 -36 c-1 -34 -7 -40 -96 -106 -182 -135 -209
-154 -218 -154 -5 -1 -41 -25 -80 -54 -65 -49 -176 -124 -201 -137 -6 -3 -39
-25 -74 -49 -37 -25 -83 -48 -108 -52 -23 -5 -54 -16 -68 -25 l-25 -16 0 -302
c0 -166 4 -306 9 -311 4 -6 5 -135 1 -290 -3 -154 -7 -1657 -8 -3340 l-2
-3060 40 -60 c22 -33 40 -66 40 -72 0 -7 3 -13 8 -13 15 0 33 -42 26 -62 -6
-19 -8 -17 -19 16 -7 21 -23 47 -34 57 -11 11 -28 33 -36 49 -9 17 -18 30 -20
30 -3 0 -5 -153 -5 -340 l0 -340 1150 0 1151 0 -7 61 c-7 67 11 169 31 169 6
0 61 -52 123 -115 l112 -115 687 2 687 3 2 33 c1 17 -3 32 -8 32 -5 0 -6 6 -1
13 16 25 12 38 -10 31 -12 -3 -26 -10 -32 -15 -16 -16 -124 -10 -158 8 -18 9
-40 18 -51 20 -23 4 -76 35 -76 45 0 4 -16 18 -35 31 -29 20 -45 23 -80 19
-25 -2 -50 0 -57 5 -7 5 -35 18 -63 28 -27 10 -57 24 -66 31 -21 18 -45 18
-53 -1 -4 -10 -20 -15 -51 -15 -25 0 -44 -4 -43 -9 2 -5 -6 -16 -17 -24 -15
-12 -17 -18 -7 -29 9 -11 8 -22 -6 -49 -14 -28 -22 -34 -49 -34 -18 0 -33 -3
-33 -7 0 -5 7 -8 15 -8 8 0 15 -4 15 -10 0 -16 -15 -12 -35 10 -10 11 -13 20
-7 20 14 0 27 44 17 59 -4 7 -12 7 -25 -1 -14 -9 -22 -9 -35 2 -9 8 -25 14
-35 15 -17 1 -65 38 -116 89 -11 12 -44 40 -72 64 -29 24 -52 47 -52 52 0 5 8
16 17 25 13 14 14 21 5 36 -9 15 -10 25 -1 40 10 19 4 77 -7 66 -3 -2 -18 9
-35 25 -17 18 -36 28 -44 24 -29 -11 -45 5 -45 44 0 34 -3 38 -31 44 -17 3
-43 3 -57 0 -15 -3 -37 -7 -50 -10 -13 -3 -20 -9 -16 -15 7 -12 63 -7 98 7 14
5 17 4 11 -5 -4 -7 -3 -16 3 -20 18 -11 -104 -4 -125 8 -29 15 -31 15 -28 -14
2 -14 -1 -23 -6 -19 -5 3 -9 13 -9 23 0 9 -6 26 -14 37 -11 14 -13 39 -10 99
5 73 -9 240 -37 440 -10 76 -10 80 11 97 12 10 17 18 11 18 -6 0 -11 12 -11
26 0 14 4 23 10 19 6 -3 10 0 10 9 0 8 -5 16 -12 18 -20 7 -37 89 -32 155 4
45 0 80 -12 118 -14 47 -15 57 -3 72 12 15 12 16 -5 10 -26 -10 -36 7 -36 62
0 35 3 42 16 37 9 -3 29 -6 46 -6 29 0 30 -2 25 -32 -4 -18 -9 -43 -13 -55 -5
-19 -2 -23 15 -23 14 0 25 -11 36 -36 13 -32 17 -35 47 -29 18 3 77 7 130 8
57 1 98 6 99 12 5 44 -7 115 -19 114 -4 -1 -23 -1 -43 0 -34 1 -37 4 -45 39
-5 20 -7 64 -4 97 3 33 1 70 -4 83 -6 14 -6 26 1 33 13 13 26 -60 17 -96 -3
-14 -2 -25 4 -25 5 0 13 -16 16 -36 4 -19 14 -38 22 -41 7 -3 14 -11 14 -19 0
-21 18 -17 30 6 6 11 15 18 21 15 5 -4 9 8 9 24 0 17 -5 31 -11 31 -7 0 -9 11
-6 27 3 19 -3 38 -24 66 -16 22 -29 45 -29 51 0 6 -14 24 -31 40 l-30 29 7
-27 c11 -45 -11 -28 -25 20 -16 52 -24 49 -50 -22 -16 -42 -23 -49 -46 -49
-21 -1 -30 -8 -40 -32 -8 -18 -23 -38 -34 -45 -14 -9 -17 -16 -10 -25 6 -7 8
-17 4 -23 -8 -13 -35 -13 -35 1 0 5 -4 8 -9 4 -11 -6 -17 10 -26 70 -4 22 -16
66 -27 97 -17 48 -18 62 -8 93 7 20 19 39 26 42 9 3 14 17 13 32 -4 52 1 101
11 101 5 0 42 -22 82 -49 40 -27 127 -83 193 -126 66 -42 139 -90 162 -106 23
-16 46 -29 51 -29 6 0 12 -4 14 -9 2 -5 82 -59 178 -120 384 -242 474 -298
553 -346 46 -27 103 -64 128 -81 174 -120 240 -164 248 -164 5 0 11 -4 13 -8
4 -10 137 -102 148 -102 4 0 10 -3 12 -7 2 -5 91 -66 198 -137 107 -71 200
-136 206 -143 6 -7 16 -13 21 -13 6 0 16 -7 23 -15 9 -10 9 -15 1 -15 -6 0
-11 5 -11 10 0 6 -7 10 -16 10 -16 0 -16 -12 0 -51 5 -12 1 -18 -15 -22 -26
-7 -39 0 -22 11 15 10 9 82 -8 92 -9 6 -17 0 -28 -22 -8 -16 -25 -37 -38 -45
-30 -20 -29 -33 2 -33 16 0 25 -6 25 -15 0 -8 5 -15 10 -15 27 0 117 -96 125
-132 4 -15 11 -29 16 -29 5 -1 13 -2 18 -3 23 -3 21 -16 -3 -22 -33 -8 -33
-21 -1 -36 30 -14 46 -2 48 35 1 13 7 23 13 20 5 -2 21 5 34 17 13 11 26 20
31 20 20 0 -20 51 -46 59 -29 7 -29 8 -7 15 22 7 31 26 11 26 -5 0 -8 4 -4 9
3 6 -4 15 -15 21 -11 6 -20 18 -20 26 0 12 10 7 39 -15 21 -17 44 -31 51 -31
6 0 9 -4 5 -9 -3 -5 4 -13 16 -16 24 -8 229 -134 229 -141 0 -3 -10 -4 -22 -2
-21 3 -23 -1 -23 -40 0 -24 3 -49 6 -54 8 -12 95 26 102 45 2 6 17 0 39 -16
19 -15 39 -27 45 -27 9 0 25 -11 98 -67 6 -5 38 -23 72 -41 78 -41 221 -137
251 -168 19 -20 20 -24 6 -24 -10 0 -14 -5 -11 -14 3 -8 1 -17 -6 -19 -9 -3
-8 -11 3 -31 11 -22 12 -29 1 -35 -8 -6 -2 -10 19 -15 43 -8 78 2 85 24 15 48
63 30 253 -96 68 -46 131 -84 138 -84 12 0 14 62 14 360 l0 359 -35 7 c-33 6
-47 16 -51 39 -1 6 -5 17 -9 26 -8 21 27 56 66 64 l29 7 0 134 0 134 -24 -6
c-16 -4 -25 -1 -30 11 -4 12 -2 16 7 12 7 -3 21 1 31 8 23 17 4 28 -34 20 -26
-6 -30 -4 -30 15 0 17 4 20 20 15 24 -8 26 7 5 25 -9 7 -14 22 -13 33 5 34
-16 29 -62 -14 -24 -23 -57 -46 -72 -51 -39 -14 -35 -24 9 -26 20 -1 40 -7 45
-14 21 -34 0 -99 -39 -117 -35 -16 -42 -14 -36 12 l5 22 -19 -23 c-19 -23 -19
-23 -57 -6 -30 15 -39 16 -46 5 -6 -11 -16 -8 -46 15 -22 16 -42 33 -46 39 -4
6 -8 2 -8 -8 0 -58 -53 -99 -144 -112 -42 -6 -50 -4 -63 14 -8 12 -21 21 -29
21 -19 0 -18 -16 2 -24 9 -4 15 -8 13 -11 -7 -6 -78 20 -91 33 -7 7 -19 12
-28 12 -9 0 -25 9 -35 20 -10 11 -21 17 -25 15 -15 -9 -39 7 -33 22 4 9 0 14
-8 13 -30 -5 -40 0 -35 18 5 13 0 17 -23 18 -25 1 -144 73 -162 98 -4 5 -11 6
-17 2 -12 -7 -42 3 -42 15 0 4 6 6 14 3 8 -3 17 0 21 6 4 7 -2 14 -14 17 -39
10 -39 99 -1 153 10 14 21 53 25 87 7 61 6 63 -20 73 -14 5 -42 10 -61 10 -19
0 -33 4 -30 9 3 4 -15 26 -40 47 -29 26 -43 46 -42 59 2 13 -2 19 -11 17 -9
-2 -12 4 -8 17 4 17 -1 21 -38 27 -24 3 -47 4 -52 1 -12 -7 -7 -102 5 -100 5
1 13 -4 16 -12 6 -17 -9 -21 -19 -5 -9 14 -45 12 -47 -2 -1 -7 -2 -22 -3 -33
-1 -11 -5 -42 -9 -68 -10 -58 1 -75 35 -55 13 7 26 16 29 20 3 3 18 -4 34 -17
25 -20 28 -26 17 -39 -8 -9 -21 -16 -30 -16 -9 0 -23 -6 -29 -12 -8 -8 -15 -9
-20 -3 -11 15 -88 55 -106 55 -9 0 -16 8 -16 18 0 9 -17 27 -40 40 -57 32 -60
59 -19 143 18 38 39 69 46 69 9 0 12 8 9 22 -16 78 -15 77 -49 80 l-32 3 22
22 c21 21 22 70 2 57 -10 -6 -41 9 -39 20 0 4 -13 20 -29 35 -20 19 -33 25
-40 18 -7 -7 -15 -6 -26 3 -21 17 -32 4 -17 -20 16 -26 15 -33 -3 -26 -9 3
-15 0 -15 -10 0 -10 6 -14 15 -10 8 3 18 -1 22 -8 5 -7 17 -16 27 -20 19 -6
19 -7 -3 -22 -17 -12 -31 -14 -67 -6 -33 7 -48 7 -57 -2 -24 -24 -63 -27 -90
-6 -14 11 -31 20 -39 20 -9 1 -8 5 4 14 23 17 23 26 -1 26 -37 0 -124 59 -119
80 2 7 -3 15 -11 18 -8 2 -11 0 -7 -6 3 -6 -14 0 -39 14 -26 13 -55 24 -66 24
-10 0 -19 4 -19 10 0 14 -75 60 -110 67 -17 3 -33 10 -36 14 -3 5 -15 9 -28 9
-12 0 -45 11 -72 26 -65 33 -137 41 -188 20 -39 -16 -101 -14 -138 6 -30 15
-21 30 12 23 38 -8 38 0 0 32 -16 13 -30 31 -30 38 0 14 -22 25 -51 25 -14 0
-18 4 -12 13 4 6 6 20 5 29 -2 9 6 23 17 30 33 20 26 38 -15 38 -28 0 -35 -3
-30 -15 9 -25 -90 -21 -104 4 -12 24 -7 64 9 69 17 6 -6 32 -28 32 -45 0 -54
-51 -15 -87 14 -13 24 -27 20 -30 -9 -10 -86 46 -97 71 -6 13 -26 31 -45 39
-37 18 -40 29 -19 67 14 25 13 25 -33 36 -26 5 -47 15 -47 21 0 6 -3 15 -7 19
-5 4 -8 16 -8 26 0 23 -36 104 -50 113 -19 12 -40 -16 -40 -52 0 -47 27 -101
52 -105 16 -2 24 -16 34 -53 8 -27 19 -65 25 -83 6 -19 9 -36 6 -38 -2 -3 -21
3 -41 12 -43 21 -79 80 -63 105 19 31 2 46 -64 52 -40 5 -67 3 -75 -4 -8 -6
-14 -10 -15 -8 0 2 -2 17 -3 33 -1 15 -9 33 -17 40 -11 7 -15 27 -15 61 1 61
-16 69 -64 29 -43 -37 -65 -24 -65 39 -1 48 -20 83 -39 69 -6 -5 -28 -12 -48
-15 -30 -4 -40 -2 -47 11 -11 21 -18 112 -8 112 46 1 60 -3 77 -20 27 -27 34
-26 61 18 41 63 48 78 39 92 -5 8 -6 27 -3 42 7 35 2 35 -64 -2 -29 -16 -61
-30 -71 -30 -38 0 -92 151 -92 257 0 42 1 45 24 39 13 -3 113 -49 222 -102
110 -53 240 -115 289 -139 50 -24 173 -83 275 -133 102 -49 223 -107 270 -127
47 -21 120 -55 163 -76 43 -21 88 -41 100 -45 33 -10 130 -54 432 -200 88 -42
198 -95 245 -116 47 -22 126 -59 175 -83 228 -108 540 -254 620 -290 22 -10
92 -43 155 -73 229 -108 388 -182 600 -277 52 -23 143 -65 203 -93 l107 -51 0
404 c0 396 0 404 -20 410 -11 4 -33 4 -49 0 -21 -4 -30 -2 -35 10 -3 9 -3 21
0 27 4 6 0 15 -7 20 -10 7 -11 11 -3 14 9 4 9 13 1 34 -9 25 -17 30 -44 30
-40 0 -36 -1 -72 10 -33 9 -61 -11 -61 -44 0 -21 -7 -20 -125 20 -96 32 -105
38 -105 75 0 16 -5 29 -11 29 -15 0 -52 -21 -64 -36 -8 -11 -20 -8 -62 13 -29
15 -53 33 -53 40 0 8 -15 12 -45 11 -33 0 -45 -5 -45 -15 0 -10 -7 -14 -20
-10 -13 3 -20 0 -20 -9 0 -26 -20 -14 -26 16 -4 17 -12 30 -20 30 -7 0 -15 9
-19 20 -7 21 -60 36 -97 27 -36 -10 -132 16 -200 53 -26 14 -67 12 -118 -6
-52 -19 -178 -13 -191 8 -4 7 -11 9 -15 6 -12 -12 -63 21 -113 74 -28 30 -53
48 -60 44 -6 -4 -9 -11 -6 -16 5 -9 -13 -11 -90 -12 -48 -1 -92 14 -210 72
-57 28 -30 25 43 -5 70 -28 90 -32 74 -12 -5 6 -12 57 -15 112 -4 82 -7 101
-21 103 -26 5 -19 32 8 32 29 0 42 30 26 60 -13 24 -70 29 -70 6 0 -8 5 -16
12 -18 7 -3 9 -12 5 -22 -11 -28 -34 -3 -42 45 -9 51 -38 72 -91 64 -32 -5
-44 -1 -68 20 -23 21 -27 32 -23 55 12 58 36 99 76 128 47 34 45 47 -4 26 -22
-9 -36 -10 -40 -4 -3 6 -17 10 -30 10 -25 0 -123 44 -166 73 -31 22 -34 22
-59 -13 l-21 -30 25 -10 c25 -9 38 -50 16 -50 -5 0 -10 5 -10 12 0 6 -12 -2
-27 -19 -40 -44 -70 -56 -138 -58 -51 -1 -64 -5 -87 -28 -15 -15 -38 -27 -51
-27 -13 0 -32 -7 -43 -15 -31 -23 -49 -18 -94 29 -24 25 -50 45 -59 45 -9 0
-34 3 -56 6 -77 10 -95 13 -120 14 -19 1 -23 5 -18 19 3 9 3 14 -2 10 -4 -4
-14 -3 -21 3 -10 9 -15 7 -20 -5 -10 -26 -24 -18 -24 14 0 20 -5 30 -15 30 -9
0 -18 7 -21 15 -4 8 -28 38 -56 66 -39 40 -53 49 -71 43 -38 -12 -67 -36 -67
-55 0 -26 -12 -30 -53 -17 -27 8 -37 17 -39 36 -2 16 -10 26 -22 28 -10 1 -22
7 -25 12 -3 4 -14 11 -24 15 -13 5 -20 0 -27 -18 -11 -29 -8 -29 -53 -10 -28
12 -38 12 -44 3 -5 -9 -9 -5 -13 12 -3 14 -14 26 -25 28 -11 2 -35 10 -54 19
-21 10 -36 12 -40 5 -4 -6 -19 -3 -41 8 -28 15 -32 20 -18 25 16 6 16 9 2 30
-22 34 -15 49 41 87 28 19 49 38 49 44 -1 5 -4 21 -8 37 -4 18 -2 29 6 31 128
40 124 40 151 16 27 -23 41 -62 42 -115 0 -23 5 -31 23 -33 17 -3 22 -10 22
-33 0 -17 -5 -39 -10 -50 -12 -22 -11 -23 24 -9 21 8 25 14 20 37 -3 15 -6 35
-7 43 -2 8 -6 20 -10 26 -5 8 4 8 30 -1 27 -9 41 -23 56 -53 10 -23 27 -44 37
-47 10 -3 20 -17 22 -30 l3 -24 45 21 c25 11 56 29 69 39 13 11 36 19 51 19
43 0 60 27 58 95 -1 47 -6 67 -25 92 -28 39 -21 65 15 52 16 -6 22 -16 22 -40
0 -20 8 -40 23 -53 12 -12 29 -32 38 -46 l16 -24 48 47 c28 27 58 47 71 47 12
0 33 9 47 20 35 28 51 26 43 -5 -5 -18 -1 -27 14 -35 11 -6 30 -29 42 -52 47
-85 44 -82 54 -46 7 23 6 41 -2 58 -7 14 -14 45 -16 70 -2 32 -9 49 -23 57
-26 16 -75 16 -75 1 -1 -8 -7 -5 -15 6 -14 18 -15 18 -34 -5 -11 -13 -23 -31
-26 -40 -11 -31 -158 -45 -176 -17 -4 6 -4 29 -2 53 5 41 -11 71 -26 48 -3 -6
-17 -9 -31 -7 -14 2 -47 6 -74 8 -45 5 -178 49 -202 67 -7 6 -22 -1 -39 -17
-22 -21 -33 -24 -59 -18 -17 4 -42 8 -55 9 -13 1 -31 12 -41 25 -14 19 -20 21
-38 11 -26 -14 -72 -14 -72 -1 0 6 -13 10 -30 10 -16 0 -30 -5 -30 -11 0 -6
-20 -9 -47 -8 -27 1 -75 -3 -108 -9 -33 -7 -81 -14 -107 -18 -33 -3 -48 -10
-48 -20 0 -16 -26 -19 -35 -4 -3 6 -51 10 -109 10 -98 0 -180 16 -213 42 -7 6
-28 10 -47 11 -19 0 -33 4 -31 7 2 4 -15 15 -38 25 -23 10 -51 25 -62 35 -11
9 -28 20 -37 23 -36 13 -38 40 -8 89 36 58 62 73 98 60 63 -24 219 -43 374
-45 191 -2 238 4 238 35 0 17 4 19 28 14 82 -18 121 -17 237 8 66 14 134 26
150 27 26 0 28 2 10 10 -14 7 -5 8 33 6 51 -4 59 5 17 17 -21 6 59 -1 110 -9
17 -3 3 4 -30 14 -97 31 -33 24 150 -17 122 -28 171 -43 173 -54 4 -20 58 -45
140 -63 95 -21 170 -44 149 -44 -10 -1 -75 13 -144 29 -69 17 -130 29 -135 28
-6 -2 2 -18 17 -36 28 -34 38 -103 16 -110 -6 -2 -11 -8 -11 -14 0 -6 6 -8 14
-5 8 3 17 3 21 -1 3 -4 20 -7 38 -9 18 -1 59 -11 92 -21 l60 -20 -45 -1 c-25
-1 -71 8 -103 19 -66 23 -87 26 -70 9 7 -7 49 -22 95 -35 46 -13 101 -29 123
-37 22 -9 105 -32 185 -52 80 -21 151 -42 158 -48 18 -14 15 -27 -8 -27 -11 0
-20 -6 -21 -12 0 -7 -1 -43 -2 -81 -3 -67 -3 -68 -50 -111 l-48 -44 25 -25
c14 -15 26 -33 26 -42 0 -9 16 -23 35 -31 52 -21 65 -18 65 15 0 36 40 71 81
71 22 0 29 -5 29 -20 0 -13 7 -20 19 -20 25 0 38 17 53 73 11 43 15 48 38 45
14 -1 30 1 36 4 6 4 24 4 40 -1 22 -6 28 -13 27 -29 -2 -13 5 -26 17 -32 26
-14 26 -48 -1 -111 -24 -56 -20 -68 16 -49 16 8 29 28 36 52 12 45 29 41 29
-7 0 -26 5 -35 22 -41 27 -8 58 26 94 106 14 30 32 62 40 71 14 15 8 19 -71
48 -97 35 -101 36 -108 19 -3 -9 -13 -4 -29 15 -17 20 -36 29 -73 34 -27 3
-63 15 -80 25 -35 21 -97 26 -77 6 18 -18 15 -26 -15 -41 -32 -16 -54 -12 -47
8 3 7 -4 23 -16 35 -11 11 -18 25 -15 29 2 5 -2 11 -10 15 -8 3 -15 10 -15 16
0 12 49 6 120 -15 135 -40 190 -56 240 -69 30 -8 82 -26 115 -40 59 -25 398
-116 434 -116 10 0 97 -23 192 -51 96 -28 314 -91 484 -139 171 -49 326 -94
345 -100 65 -20 503 -140 511 -140 5 0 9 144 9 320 l0 320 -63 0 c-62 0 -64 0
-80 -35 -21 -43 -32 -44 -57 -3 -17 29 -18 35 -5 55 17 25 19 37 6 29 -4 -3
-6 5 -3 19 3 20 -2 26 -32 39 -52 22 -106 31 -106 17 0 -11 -52 -5 -82 10 -10
6 -18 5 -20 -2 -2 -6 -19 -14 -38 -18 -27 -5 -35 -13 -42 -38 -9 -34 -40 -48
-71 -32 -22 12 -71 3 -62 -11 3 -6 1 -10 -4 -10 -6 0 -11 4 -11 10 0 5 -7 7
-15 4 -8 -4 -15 -2 -15 3 0 11 -136 10 -161 -1 -10 -4 -20 -3 -23 2 -3 5 4 12
16 16 16 4 20 8 12 16 -6 6 -23 8 -38 4 -23 -5 -25 -9 -14 -22 11 -14 10 -15
-7 -8 -11 5 -29 11 -40 14 -11 2 -26 9 -32 15 -9 6 -13 6 -13 -2 0 -18 -23
-38 -38 -33 -7 2 -19 -4 -26 -14 -13 -17 -14 -16 -22 7 -5 13 -9 29 -10 34 -1
6 -3 15 -4 20 -6 24 -4 40 3 46 4 3 11 38 14 77 l6 72 -29 -14 c-21 -10 -59
-13 -134 -11 -58 1 -109 4 -115 5 -20 5 -75 -13 -75 -25 0 -12 -38 -19 -146
-26 -32 -2 -144 45 -144 60 0 4 -38 18 -84 30 -51 14 -87 29 -90 38 -5 13 -9
13 -23 2 -9 -8 -18 -13 -20 -11 -1 1 -15 2 -29 2 -21 0 -24 -3 -19 -21 6 -18
5 -20 -14 -10 -17 10 -21 21 -21 60 0 41 6 56 35 91 19 23 35 50 35 59 0 36
31 49 133 53 108 6 132 16 96 42 -30 21 -45 20 -61 -3 -10 -15 -23 -18 -57
-15 -55 5 -61 10 -33 30 25 17 29 34 7 34 -8 0 -21 -13 -29 -29 -10 -18 -26
-30 -45 -34 -42 -9 -61 1 -68 34 -3 16 -13 31 -23 34 -22 7 -53 52 -41 59 5 3
20 -3 34 -14 14 -11 30 -20 37 -20 6 0 10 -8 8 -17 -2 -11 3 -18 12 -18 11 0
15 10 14 38 -1 23 3 37 11 37 7 0 24 15 38 32 36 48 121 134 143 146 21 10 91
5 99 -8 3 -5 -11 -14 -30 -20 -20 -6 -35 -18 -35 -27 0 -8 -8 -27 -18 -41 -27
-40 -33 -60 -17 -66 8 -3 11 -13 8 -26 -4 -16 0 -23 16 -27 16 -4 21 -11 18
-24 -3 -12 0 -19 9 -19 21 0 57 -36 49 -49 -3 -7 3 -11 17 -12 76 -4 112 -7
188 -18 47 -6 99 -16 115 -21 17 -5 48 -11 70 -15 31 -5 45 -14 63 -41 12 -19
33 -39 45 -44 12 -4 34 -20 49 -34 15 -14 29 -26 32 -26 14 0 36 63 41 115 4
44 13 69 38 104 35 48 37 77 10 98 -14 11 -13 14 10 22 17 7 27 20 32 43 12
56 31 76 90 93 64 19 154 21 185 5 19 -10 107 -17 325 -24 50 -2 135 -9 190
-15 96 -11 110 -14 155 -27 19 -5 20 -1 20 78 l0 83 -267 29 c-148 15 -365 39
-483 52 -195 22 -309 34 -590 64 -52 5 -241 26 -420 45 -458 50 -512 55 -606
56 -46 1 -86 5 -89 9 -6 9 -44 2 -61 -12 -7 -5 -14 -3 -18 7 -5 15 -41 20 -70
9 -12 -4 -16 -20 -16 -55 0 -27 -4 -49 -10 -49 -5 0 -9 -12 -9 -27 1 -17 3
-21 6 -10 2 9 10 17 17 17 14 0 20 -86 6 -95 -4 -3 -6 -14 -3 -25 4 -16 13
-19 49 -18 24 1 44 4 44 6 0 2 -13 17 -30 35 -43 46 -27 54 90 45 14 -1 35 1
47 5 18 7 24 2 38 -28 10 -19 21 -35 26 -35 5 0 9 -6 9 -13 0 -8 9 -22 21 -33
l20 -18 -21 -8 c-16 -6 -21 -15 -20 -35 3 -47 1 -53 -22 -53 -18 0 -28 11 -43
45 -17 40 -23 45 -53 45 -20 0 -31 -4 -27 -10 3 -6 -1 -13 -9 -16 -23 -9 -20
-19 9 -34 25 -13 33 -48 19 -84 -7 -17 -34 -22 -34 -7 0 23 -67 44 -141 45
-51 1 -82 6 -93 16 -23 18 -39 61 -28 72 13 13 42 -2 42 -23 0 -16 3 -17 24
-7 22 10 23 12 9 26 -8 9 -39 18 -69 20 l-54 4 0 -35 c0 -47 -17 -56 -46 -24
-20 22 -28 25 -49 17 -17 -6 -34 -6 -53 2 -25 11 -26 12 -5 15 13 3 20 10 17
17 -3 8 4 16 15 19 32 8 25 27 -10 27 -19 0 -47 -13 -76 -35 -25 -19 -49 -35
-53 -35 -18 0 -80 -68 -80 -87 0 -33 33 -103 74 -156 21 -27 42 -59 47 -71 6
-12 30 -32 53 -45 35 -18 52 -21 89 -16 27 4 53 3 64 -4 15 -9 15 -10 2 -11
-9 0 -22 -7 -29 -15 -18 -21 -80 -19 -141 6 -55 21 -112 62 -102 73 4 3 1 6
-5 6 -6 0 -35 24 -64 54 -67 67 -91 79 -149 77 -45 -1 -234 -37 -250 -47 -5
-2 -27 -7 -51 -9 -42 -5 -169 -27 -238 -42 -19 -5 -57 -8 -84 -8 l-49 0 -13
50 c-12 46 -59 364 -66 445 -2 25 1 34 10 32 8 -1 46 -3 85 -3 75 -1 97 -6 77
-19 -7 -4 0 -12 19 -20 17 -6 33 -20 36 -29 3 -9 19 -32 35 -51 25 -29 31 -32
40 -20 5 8 10 25 10 37 0 12 6 26 13 30 7 4 42 42 77 83 36 41 68 77 71 80 3
3 21 16 38 30 18 14 39 31 46 38 23 21 40 14 63 -27 25 -44 27 -60 10 -96 -7
-16 -17 -24 -27 -21 -18 6 -81 -47 -81 -66 0 -23 25 -84 35 -88 6 -3 17 14 24
37 13 38 22 45 81 72 37 17 76 31 88 31 18 0 22 6 22 30 0 34 26 95 53 127 26
30 99 18 -661 107 -111 13 -205 26 -209 30 -19 18 29 17 248 -8 133 -15 243
-26 244 -24 11 11 41 139 35 143 -8 5 -84 12 -215 20 -27 2 -86 10 -130 19
-44 8 -106 15 -137 16 -58 0 -88 16 -88 47 0 12 9 14 48 9 26 -3 88 -8 137
-11 50 -3 187 -12 305 -21 118 -9 305 -21 416 -28 110 -7 206 -16 213 -20 18
-11 4 -25 -22 -20 -14 3 -9 -2 13 -13 l35 -18 -87 -3 -86 -3 -7 -42 c-4 -23
-12 -57 -18 -75 -14 -41 -5 -48 65 -51 28 -1 69 -6 92 -11 22 -5 76 -10 119
-10 52 0 76 -4 72 -10 -5 -7 11 -9 47 -6 33 3 42 2 23 -2 -40 -10 211 -40 390
-46 72 -3 195 -12 275 -20 80 -9 215 -22 300 -31 85 -8 207 -22 270 -30 63 -8
237 -26 385 -41 149 -14 281 -29 295 -33 14 -4 42 -4 63 -1 20 4 37 3 37 -2 0
-5 23 -8 51 -7 31 2 53 -2 58 -9 4 -7 29 -12 57 -12 27 1 73 1 103 1 30 0 57
-4 60 -9 3 -5 51 -12 106 -15 55 -3 151 -13 214 -21 63 -9 116 -16 118 -16 2
0 3 80 3 179 l0 178 -72 7 c-96 9 -113 26 -27 27 35 0 58 3 51 6 -16 6 3 33
23 33 8 0 12 12 10 33 -2 32 -3 32 -76 45 -41 8 -83 18 -94 23 -27 13 -105 18
-105 8 0 -5 8 -9 18 -9 14 0 14 -2 3 -9 -10 -6 -27 -1 -53 16 -24 16 -53 26
-80 27 -24 1 -49 5 -56 10 -8 5 -21 1 -33 -10 -18 -17 -20 -16 -42 3 -58 51
-149 64 -162 23 -3 -10 -12 -21 -20 -24 -29 -11 -17 -36 18 -37 l32 -2 -36 -6
c-24 -4 -46 -18 -67 -42 -18 -20 -32 -39 -32 -42 0 -7 77 -18 147 -21 35 -1
66 -6 70 -10 5 -5 -28 -6 -72 -4 -44 3 -91 1 -105 -3 -22 -6 -23 -7 -4 -8 12
-1 27 -8 34 -16 26 -31 2 -36 -173 -30 -152 5 -204 9 -282 21 -11 2 -60 6
-109 8 -103 6 -126 12 -126 32 0 11 18 14 87 14 96 0 107 7 23 14 -84 7 -520
36 -562 38 -20 1 -43 5 -50 10 -12 8 243 2 302 -7 14 -2 97 -7 185 -10 88 -3
198 -8 245 -10 62 -4 80 -2 67 6 -9 5 -22 7 -28 3 -8 -4 -9 1 -4 15 4 13 2 21
-5 21 -6 0 -8 -4 -5 -10 9 -14 -8 -12 -29 3 -13 10 -41 12 -97 9 -75 -4 -81
-3 -116 24 -34 26 -46 29 -116 29 -54 1 -81 5 -86 14 -10 16 -56 4 -133 -35
-28 -14 -48 -19 -50 -13 -2 6 -21 12 -43 13 -44 3 -89 19 -100 36 -4 6 -15 8
-25 5 -31 -10 -70 6 -85 35 -14 27 -14 27 -65 14 -27 -7 -54 -15 -59 -18 -5
-3 -32 1 -60 11 -40 12 -51 21 -51 37 -1 19 -2 19 -13 5 -12 -16 -66 -30 -119
-33 -27 -1 -41 -16 -16 -16 9 0 9 -3 1 -11 -7 -7 -25 -9 -45 -5 -25 4 -34 12
-35 28 -9 80 -16 118 -23 118 -24 0 -42 -17 -60 -57 -19 -43 -20 -44 -57 -38
-89 14 -85 11 -78 59 5 30 3 46 -6 51 -9 6 -11 2 -7 -13 4 -15 2 -22 -8 -22
-8 0 -14 6 -14 13 0 8 -13 13 -33 13 -22 0 -41 9 -59 27 -15 15 -31 27 -35 27
-5 0 -14 -19 -21 -43 -7 -24 -25 -56 -39 -72 -25 -26 -27 -27 -40 -9 -7 10
-11 24 -9 31 4 9 -1 10 -17 4 -15 -6 -22 -17 -22 -35 1 -21 -4 -26 -25 -27
-20 -1 -18 -3 10 -9 34 -7 34 -7 -12 -9 -27 0 -48 -5 -48 -10 0 -5 -11 -4 -24
2 -23 11 -23 13 -7 22 13 7 17 19 15 40 -6 57 -78 77 -80 22 -1 -15 -4 -30 -7
-34 -4 -3 -2 -12 4 -20 9 -11 1 -13 -44 -13 -30 0 -68 -7 -83 -15 -27 -14 -29
-14 -32 5 -3 17 -12 19 -90 19 -71 0 -188 16 -144 20 8 1 12 19 12 57 0 53 23
114 42 114 11 0 48 74 72 145 17 49 28 63 60 81 74 42 143 39 193 -8 24 -22
49 -19 95 13 29 21 107 26 125 8 9 -9 20 -5 43 14 17 15 47 29 68 32 61 11
103 26 109 41 9 23 57 42 77 30 14 -9 21 -6 37 13 l19 23 0 -36 c0 -40 15 -48
26 -13 9 30 22 37 67 37 36 0 48 -12 26 -26 -8 -4 -7 -9 2 -15 10 -6 4 -9 -18
-9 -18 0 -33 -5 -33 -11 0 -6 -6 -17 -14 -25 -13 -12 -15 -12 -19 4 -3 13 -6
11 -17 -11 -9 -17 -20 -27 -29 -24 -12 3 -17 -5 -18 -29 -2 -18 -13 -43 -25
-57 l-22 -25 -19 25 c-18 22 -21 23 -37 8 -23 -20 -19 -49 6 -53 33 -7 36 -18
13 -57 l-23 -38 23 -18 c13 -11 26 -19 30 -19 16 1 69 59 84 95 10 22 24 53
32 68 8 16 15 35 15 43 0 8 7 14 15 14 8 0 15 7 15 15 0 8 14 17 35 21 42 8
70 51 62 94 -5 25 0 29 96 78 115 59 151 64 212 29 36 -20 113 -116 114 -142
1 -6 17 -34 36 -64 19 -29 35 -58 35 -65 0 -17 30 -57 39 -52 4 3 8 19 9 36 2
88 81 218 149 247 56 23 139 33 176 22 51 -17 109 -49 143 -81 26 -24 34 -27
60 -19 16 5 70 12 121 15 85 5 94 4 120 -17 25 -21 37 -23 121 -20 82 2 97 5
122 27 34 28 78 36 176 32 60 -2 77 -7 118 -35 l47 -33 45 21 c126 59 209 53
358 -26 27 -14 34 -14 80 0 28 9 60 18 71 19 19 3 20 12 23 242 l2 239 -87 -6
c-119 -9 -340 -27 -1058 -86 -335 -28 -727 -60 -870 -71 -143 -11 -303 -25
-355 -30 -293 -30 -978 -81 -1663 -125 -126 -8 -257 -18 -292 -21 l-63 -7 -20
45 c-33 71 -37 95 -15 101 15 4 14 5 -4 6 -26 1 -35 25 -29 72 4 32 32 109 40
109 2 0 40 -9 85 -20 45 -12 85 -19 89 -16 5 3 14 1 22 -5 11 -6 4 -9 -24 -9
-28 0 -37 -4 -33 -14 3 -7 0 -19 -6 -26 -10 -10 0 -11 47 -6 33 4 62 8 64 10
1 2 4 14 4 27 1 13 5 29 10 36 6 8 -7 13 -44 18 -72 10 -94 24 -28 17 35 -3
51 -1 47 5 -4 6 0 16 8 23 22 18 44 98 47 172 2 38 6 68 9 68 16 0 16 50 -2
158 -10 64 -18 131 -18 147 1 60 17 -8 28 -118 6 -59 15 -115 20 -124 5 -10
14 -38 21 -62 12 -47 26 -45 32 4 3 27 6 30 36 27 60 -6 72 16 72 132 0 56 4
107 9 115 5 8 6 24 1 36 -5 14 -4 27 3 34 16 16 35 13 41 -6 3 -10 2 7 -1 37
-3 30 -9 62 -13 70 -4 8 -11 40 -14 70 -4 30 -12 85 -18 121 -15 95 -4 106 22
21 18 -60 25 -72 39 -66 43 18 56 14 82 -23 27 -40 27 -37 16 -218 -1 -26 2
-30 23 -27 13 1 35 10 48 20 14 9 33 22 43 28 10 6 28 19 38 28 11 10 24 15
29 12 33 -20 -49 -113 -132 -151 -30 -14 -59 -25 -64 -25 -16 0 -72 -108 -72
-138 0 -28 -79 -222 -101 -249 -25 -29 3 -24 56 11 54 36 69 41 113 38 16 -2
22 -8 22 -27 0 -14 2 -25 5 -25 3 0 17 11 31 25 14 14 33 25 43 25 10 0 26 11
35 24 20 31 46 39 82 25 l29 -11 -23 -18 c-20 -17 -21 -20 -6 -34 40 -41 74
-11 139 120 24 49 51 86 87 118 45 40 58 46 96 46 36 0 49 -6 78 -34 20 -19
49 -38 64 -41 33 -7 90 18 90 39 0 8 9 16 20 19 14 4 20 14 20 35 0 83 154
197 220 162 15 -8 22 -5 40 20 21 29 87 79 125 93 28 11 145 -22 145 -41 0 -8
12 -28 26 -45 28 -34 16 -51 -15 -23 -10 9 -27 16 -38 16 -17 0 -23 -12 -38
-76 -20 -85 -36 -87 -38 -5 -2 54 -7 60 -31 36 -8 -8 -21 -15 -29 -15 -16 0
-47 -57 -47 -85 0 -12 5 -15 16 -11 14 5 16 1 10 -26 -7 -38 4 -30 19 13 14
43 30 32 28 -18 -3 -44 4 -51 37 -33 10 5 33 7 50 3 25 -5 36 -15 51 -47 10
-23 19 -51 19 -64 0 -22 1 -22 31 -7 27 14 30 20 23 43 -15 50 -1 220 16 193
4 -8 13 -10 19 -7 6 4 11 2 11 -3 0 -20 22 -11 69 28 54 45 101 60 121 37 8
-10 21 -14 36 -10 16 4 24 2 24 -6 0 -10 19 -12 78 -7 42 3 84 2 92 -3 8 -5
24 -3 42 6 24 12 27 12 22 0 -12 -31 35 -3 94 57 51 52 61 68 64 102 2 32 6
39 21 37 15 -3 17 1 13 16 -6 17 -1 21 31 26 21 3 68 21 106 38 63 30 70 31
111 20 25 -6 61 -23 82 -37 56 -38 111 -35 170 11 26 19 63 43 83 54 63 32
101 76 101 117 0 26 53 85 71 78 8 -3 32 10 54 30 38 32 140 73 153 60 3 -3
17 5 31 18 14 14 50 32 79 43 29 10 70 35 92 56 25 24 49 38 65 38 37 0 62 16
69 43 3 15 18 30 36 37 16 7 30 16 30 21 0 5 5 9 11 9 7 0 17 7 23 15 9 13
111 45 219 69 l27 6 0 435 0 434 -1134 1 -1135 0 -115 -55 c-64 -30 -119 -55
-122 -55 -5 0 -31 -12 -264 -120 -69 -32 -163 -74 -210 -93 -47 -19 -133 -58
-192 -86 -58 -28 -109 -51 -113 -51 -3 0 -44 -18 -90 -39 -46 -22 -102 -45
-124 -52 -23 -7 -39 -14 -36 -17 3 -3 -20 -16 -50 -30 -30 -14 -55 -29 -55
-33 0 -5 -12 -9 -26 -9 -31 0 -59 29 -84 85 -10 22 -27 49 -39 59 -11 11 -21
24 -21 31 0 12 117 73 251 130 46 20 91 40 99 45 36 23 215 114 475 241 l90
44 -448 3 -449 2 -61 -32 c-34 -17 -69 -37 -77 -44 -8 -6 -37 -24 -65 -38 -58
-31 -71 -39 -145 -86 -128 -82 -197 -116 -250 -125 -42 -7 -44 -6 -30 10 16
19 53 44 135 90 165 93 260 149 285 165 14 10 41 27 60 39 l35 21 -370 -1
c-219 -1 -384 -5 -405 -11z m4258 -3 c-19 -19 -586 -216 -592 -206 -3 4 21 16
52 26 31 10 62 22 67 26 6 3 55 21 110 39 55 18 141 47 190 65 142 53 189 66
173 50z m-873 -315 c-33 -16 -125 -50 -205 -76 -80 -26 -156 -51 -170 -56 -43
-16 -8 7 40 26 25 10 54 22 65 27 86 37 297 108 320 108 6 -1 -17 -14 -50 -29z
m-625 -220 c-8 -5 -19 -10 -25 -10 -5 0 -3 5 5 10 8 5 20 10 25 10 6 0 3 -5
-5 -10z m-45 -10 c-3 -5 -12 -10 -18 -10 -7 0 -6 4 3 10 19 12 23 12 15 0z
m-45 -24 c0 -2 -9 -6 -20 -9 -11 -3 -18 -1 -14 4 5 9 34 13 34 5z m970 -26
c-8 -5 -26 -9 -40 -9 -23 0 -23 1 -5 9 11 5 29 9 40 9 17 1 17 -1 5 -9z
m-3920 -45 c0 -23 -92 -77 -361 -212 -92 -46 -169 -83 -173 -83 -20 0 0 20 42
40 26 13 49 26 52 30 7 9 148 97 180 112 14 7 48 26 75 44 135 85 185 104 185
69z m3725 -15 c-3 -5 -12 -10 -19 -10 -7 0 -38 -8 -69 -19 -32 -10 -57 -15
-57 -11 0 8 111 47 138 49 7 1 10 -3 7 -9z m-1955 -335 c0 -9 -70 -36 -87 -33
-14 3 40 26 85 37 1 1 2 -1 2 -4z m-1786 -105 c17 -52 20 -89 8 -105 -12 -16
-46 -33 -185 -89 -202 -81 -234 -91 -265 -76 l-27 12 25 20 c14 11 33 26 43
33 10 7 20 25 22 41 1 15 13 35 26 46 33 26 177 111 220 131 20 9 39 23 42 30
3 9 17 12 40 9 32 -4 37 -8 51 -52z m4094 -15 c-6 -13 -26 -31 -44 -40 -18 -8
-36 -20 -39 -25 -3 -6 -17 -10 -30 -10 l-24 0 25 38 c29 43 50 56 93 59 28 2
30 1 19 -22z m-3038 -191 c0 -8 -10 -14 -24 -14 -13 0 -33 -3 -43 -7 -15 -5
-14 -2 5 19 24 27 62 28 62 2z m1948 -53 c10 -6 7 -10 -12 -15 -14 -3 -36 -17
-50 -31 -29 -29 -56 -33 -56 -7 0 24 11 36 45 49 38 14 56 15 73 4z m-2088 -8
c0 -11 -66 -63 -79 -63 -21 0 -10 18 27 43 39 27 52 32 52 20z m385 -27 c23
-34 17 -100 -9 -105 -26 -4 -47 26 -41 58 5 22 4 23 -4 6 -9 -19 -12 -18 -15
4 0 5 -4 13 -8 17 -14 13 -9 24 15 34 35 14 45 12 62 -14z m1562 -48 c-15 -9
-19 -4 -11 16 5 14 9 15 15 5 5 -8 3 -17 -4 -21z m-197 -18 c-47 -41 -93 -57
-135 -46 -63 16 3 56 125 76 25 4 47 8 50 9 3 0 -15 -17 -40 -39z m852 8 c-7
-7 -12 -8 -12 -2 0 14 12 26 19 19 2 -3 -1 -11 -7 -17z m-4405 -34 c-16 -14
-31 -23 -34 -20 -9 9 28 46 46 46 11 0 8 -7 -12 -26z m1888 -14 c3 -5 1 -10
-5 -10 -6 0 -8 -5 -5 -10 5 -8 11 -7 21 1 11 9 14 8 14 -5 0 -9 -7 -16 -15
-16 -8 0 -15 -2 -15 -4 0 -2 -3 -11 -6 -19 -4 -12 0 -14 15 -10 22 6 24 3 15
-20 -8 -23 -66 1 -58 25 3 9 0 26 -6 37 -8 16 -7 22 7 30 23 13 30 13 38 1z
m2293 -8 c3 -9 -3 -13 -19 -10 -12 1 -24 9 -27 16 -3 9 3 13 19 10 12 -1 24
-9 27 -16z m-988 -22 c0 -5 -7 -10 -15 -10 -8 0 -15 5 -15 10 0 6 7 10 15 10
8 0 15 -4 15 -10z m706 -41 c3 -5 -17 -9 -45 -9 -46 0 -76 13 -50 22 18 6 89
-4 95 -13z m284 -26 c0 -5 -5 -15 -10 -23 -8 -12 -10 -11 -10 8 0 12 5 22 10
22 6 0 10 -3 10 -7z m-267 -9 c4 -4 -3 -17 -15 -29 -12 -12 -22 -29 -24 -36
-1 -8 -5 -21 -9 -30 -3 -10 -1 -19 8 -22 23 -9 67 4 67 20 0 18 38 73 51 73
17 0 9 -51 -15 -89 -20 -32 -32 -39 -68 -45 -27 -4 -44 -3 -46 4 -2 5 -11 10
-20 10 -13 0 -17 9 -17 42 1 48 18 82 50 97 25 12 30 13 38 5z m-200 -71 c-10
-29 -66 -83 -86 -83 -12 0 -16 4 -11 13 4 6 -2 4 -13 -5 -11 -10 -26 -18 -33
-18 -20 0 20 41 55 56 17 7 39 22 49 33 24 26 48 28 39 4z m-1553 3 c0 -2 -7
-9 -15 -16 -12 -10 -15 -10 -15 4 0 9 7 16 15 16 8 0 15 -2 15 -4z m281 -76
c-16 -47 -22 -55 -42 -52 -30 3 -34 9 -21 25 7 8 9 17 5 20 -3 4 -1 7 5 7 7 0
12 8 12 18 0 16 52 55 58 42 1 -3 -6 -30 -17 -60z m1075 -8 c-9 -9 -37 8 -31
18 5 8 11 7 21 -1 8 -6 12 -14 10 -17z m-2573 -236 c4 -10 25 -13 78 -12 62 1
77 -2 96 -20 13 -12 23 -26 23 -33 0 -6 4 -11 9 -11 5 0 12 -14 16 -31 4 -17
13 -33 20 -35 7 -3 21 -24 30 -46 23 -59 46 -83 80 -85 17 -1 36 -11 44 -23
14 -21 41 -27 41 -9 0 5 5 7 12 3 9 -6 9 -9 1 -11 -7 -3 -17 -21 -24 -41 -6
-20 -16 -40 -21 -43 -6 -4 -6 -14 1 -28 7 -13 8 -21 2 -21 -6 0 -15 9 -21 20
-6 11 -15 18 -21 15 -5 -4 -6 -12 -2 -18 4 -7 -38 33 -93 89 -78 80 -114 109
-173 138 -40 20 -85 36 -98 36 -13 0 -33 5 -45 11 -11 6 -50 15 -86 20 -55 8
-68 7 -84 -7 -10 -10 -21 -14 -25 -10 -8 8 35 45 53 46 6 0 20 12 30 27 43 59
74 80 74 48 0 -26 29 -16 45 15 17 32 30 38 38 16z m-1023 -4 c0 -9 -44 -32
-60 -32 -21 0 -9 19 18 28 35 13 42 14 42 4z m401 -33 c-57 -25 -105 -21 -51
4 19 9 49 16 65 16 29 0 28 -1 -14 -20z m233 2 c3 -5 -4 -11 -17 -15 -35 -9
-40 -7 -27 9 14 17 36 20 44 6z m-73 -39 c-7 -2 -18 1 -23 6 -8 8 -4 9 13 5
13 -4 18 -8 10 -11z m-274 2 c-3 -3 -12 -4 -19 -1 -8 3 -5 6 6 6 11 1 17 -2
13 -5z m2003 -65 c0 -5 5 -7 10 -4 6 3 10 -1 10 -9 0 -18 -67 -49 -87 -42 -21
9 -15 23 20 45 36 23 47 26 47 10z m-2315 -39 c-3 -5 -15 -10 -26 -10 -11 0
-17 5 -14 10 3 6 15 10 26 10 11 0 17 -4 14 -10z m775 -5 c0 -2 -17 -13 -38
-24 -22 -11 -47 -32 -56 -46 -9 -14 -28 -30 -41 -35 -14 -5 -32 -27 -44 -55
-21 -47 -45 -65 -63 -47 -17 17 -48 2 -48 -24 0 -17 -6 -24 -19 -24 -28 0 -35
-17 -11 -25 22 -7 25 -26 9 -56 -6 -13 -17 -18 -26 -15 -11 4 -13 2 -9 -9 3
-9 -3 -19 -14 -25 -11 -6 -20 -17 -20 -25 0 -8 -9 -19 -21 -26 -14 -7 -19 -17
-16 -31 6 -20 -26 -205 -37 -215 -7 -7 -168 -28 -287 -38 l-87 -7 -7 193 c-8
215 -5 294 10 294 6 0 15 -29 20 -65 l11 -65 56 -3 c53 -3 58 -1 79 27 15 21
34 32 60 36 22 4 39 11 39 15 0 5 21 28 46 52 45 43 73 61 60 39 -4 -7 0 -11
12 -11 20 0 85 53 76 62 -7 8 74 0 87 -8 5 -3 12 3 15 13 3 10 10 26 15 35 12
24 12 28 -7 28 -14 0 -14 3 -4 15 7 8 20 15 29 15 9 0 30 7 46 16 17 9 37 18
45 20 8 2 31 8 50 13 39 10 90 14 90 6z m-325 -94 c8 -14 -33 -33 -79 -37 -22
-2 -48 -6 -58 -10 -20 -6 -25 11 -5 23 10 6 100 29 129 32 4 1 9 -3 13 -8z
m-179 -67 c-4 -12 -2 -15 9 -10 8 3 15 0 15 -7 0 -16 -20 -37 -36 -37 -19 0
-27 37 -12 54 17 20 32 20 24 0z m-138 -46 c-6 -18 -28 -21 -28 -4 0 9 7 16
16 16 9 0 14 -5 12 -12z m-133 -8 c-3 -5 -10 -10 -16 -10 -5 0 -9 5 -9 10 0 6
7 10 16 10 8 0 12 -4 9 -10z m1882 -572 c7 -6 23 -3 42 6 16 9 46 16 65 16 28
0 38 -5 49 -27 18 -32 3 -90 -25 -99 -10 -3 -18 -12 -18 -20 0 -16 -16 -19
-25 -4 -3 6 -19 10 -34 10 -21 0 -30 -6 -35 -22 -8 -32 -7 -68 2 -68 26 1 52
14 48 26 -5 14 21 40 31 30 3 -3 8 -20 10 -38 2 -18 8 -35 15 -39 18 -11 13
-66 -7 -89 -10 -11 -18 -34 -19 -51 -1 -28 -3 -30 -30 -25 -16 3 -53 6 -82 6
-43 0 -52 3 -48 15 4 10 -3 18 -20 24 -14 6 -34 27 -44 48 -17 33 -18 52 -13
148 4 80 11 118 23 137 23 35 80 43 115 16z m-1750 -2 c3 -3 0 -12 -7 -21 -10
-12 -9 -16 3 -21 21 -8 32 -41 19 -57 -8 -9 -1 -13 24 -15 32 -2 34 0 28 23
-5 19 -2 25 9 25 10 0 18 13 23 35 3 19 10 32 16 29 5 -3 15 0 23 6 13 10 15
8 15 -13 0 -14 -8 -51 -18 -84 -10 -32 -19 -83 -21 -113 -1 -30 -11 -75 -21
-101 -9 -26 -15 -59 -13 -73 4 -21 0 -28 -23 -36 -16 -6 -44 -10 -64 -10 -117
6 -153 -7 -85 -30 19 -6 33 -16 30 -21 -4 -5 -1 -9 4 -9 6 0 11 6 11 13 0 9 3
8 9 -2 6 -9 19 -11 42 -6 25 4 30 3 19 -4 -12 -9 -10 -11 12 -11 34 0 47 -19
19 -27 -12 -3 -21 -10 -21 -15 0 -6 -8 -4 -17 3 -15 12 -16 12 -10 -3 3 -10
-3 -28 -15 -43 -24 -31 -18 -41 38 -60 38 -13 38 -13 37 -66 0 -29 -5 -55 -11
-57 -6 -2 -25 4 -43 14 -45 23 -88 34 -94 25 -2 -5 25 -21 60 -36 36 -15 65
-33 65 -41 0 -22 -53 -17 -114 10 -53 24 -55 24 -61 5 -13 -41 6 -63 80 -89
27 -10 28 -13 12 -21 -10 -6 -31 -7 -48 -4 -23 5 -34 3 -44 -11 -11 -15 -14 2
-18 116 -8 201 -7 303 5 317 7 9 7 13 -1 13 -9 0 -9 5 -1 20 7 14 7 25 -1 38
-22 35 -5 51 56 54 72 4 71 20 -1 24 -64 4 -63 3 -69 33 -2 11 -6 24 -8 29 -5
7 -11 203 -8 250 1 19 4 20 19 11 14 -9 25 -8 48 5 27 15 97 17 111 2z m1543
-12 c6 -14 10 -35 10 -47 -1 -20 -2 -20 -25 8 -14 17 -25 38 -25 48 0 26 29
20 40 -9z m493 -234 c3 -11 2 -20 -2 -20 -5 0 -16 9 -26 20 -18 19 -17 20 2
20 12 0 23 -8 26 -20z m855 -207 c-10 -2 -28 -2 -40 0 -13 2 -5 4 17 4 22 1
32 -1 23 -4z m210 -10 c-16 -2 -40 -2 -55 0 -16 2 -3 4 27 4 30 0 43 -2 28 -4z
m-2736 -23 c12 -11 19 -22 16 -26 -8 -7 -46 17 -52 33 -8 19 12 16 36 -7z
m2926 13 c-15 -2 -42 -2 -60 0 -18 2 -6 4 27 4 33 0 48 -2 33 -4z m71 -89 c8
-7 -114 -3 -159 6 -30 5 -12 6 55 3 55 -3 102 -7 104 -9z m-502 -10 c-3 -3
-12 -4 -19 -1 -8 3 -5 6 6 6 11 1 17 -2 13 -5z m816 -1 c-7 -2 -21 -2 -30 0
-10 3 -4 5 12 5 17 0 24 -2 18 -5z m1590 0 c-7 -2 -19 -2 -25 0 -7 3 -2 5 12
5 14 0 19 -2 13 -5z m-1460 -10 c-13 -2 -35 -2 -50 0 -16 2 -5 4 22 4 28 0 40
-2 28 -4z m-96 -39 c-3 -3 -12 -4 -19 -1 -8 3 -5 6 6 6 11 1 17 -2 13 -5z
m-1732 -24 c27 -7 27 -8 5 -8 -14 0 -36 4 -50 8 -20 6 -21 8 -5 8 11 0 34 -4
50 -8z m2215 -19 c0 -9 -119 -6 -128 4 -3 3 25 5 61 5 37 0 67 -4 67 -9z
m-1090 -50 c16 -4 25 -14 25 -26 0 -18 -7 -20 -70 -20 -76 -1 -180 11 -197 22
-7 4 -4 11 7 20 20 14 188 17 235 4z m328 -33 c-3 -7 -11 -13 -18 -13 -7 0
-15 6 -17 13 -3 7 4 12 17 12 13 0 20 -5 18 -12z m-11 -34 c-3 -3 -12 -4 -19
-1 -8 3 -5 6 6 6 11 1 17 -2 13 -5z m1347 -5 c39 -1 58 -4 41 -6 -16 -2 -36
-6 -44 -9 -26 -9 21 -33 66 -34 23 0 53 -4 67 -10 17 -6 27 -6 32 1 3 6 20 10
38 9 45 -3 53 -1 36 10 -8 5 -12 11 -10 14 8 8 85 10 97 3 10 -6 213 -26 270
-27 15 0 23 -7 25 -22 2 -13 15 -29 31 -36 16 -8 26 -16 24 -18 -3 -3 -72 2
-153 10 -82 8 -192 18 -244 21 -52 3 -127 11 -167 17 -39 6 -84 8 -100 5 -27
-6 -104 5 -188 26 l-40 10 30 13 c19 8 23 13 13 14 -10 0 -18 5 -18 11 0 8 18
10 61 5 34 -3 94 -7 133 -7z m173 -15 c-3 -3 -12 -4 -19 -1 -8 3 -5 6 6 6 11
1 17 -2 13 -5z m606 -41 c-7 -2 -19 -2 -25 0 -7 3 -2 5 12 5 14 0 19 -2 13 -5z
m240 -20 c-7 -2 -19 -2 -25 0 -7 3 -2 5 12 5 14 0 19 -2 13 -5z m-5725 -32
c-4 -20 -58 -28 -58 -9 0 22 20 36 41 31 12 -3 19 -12 17 -22z m5551 -41 c12
-7 9 -9 -15 -10 -50 0 -124 12 -124 21 0 10 118 1 139 -11z m-5575 -16 c14 -5
14 -7 0 -21 -14 -14 -18 -14 -37 6 l-21 21 21 0 c12 0 28 -3 37 -6z m3246 -54
c0 -5 -4 -10 -10 -10 -5 0 -10 5 -10 10 0 6 5 10 10 10 6 0 10 -4 10 -10z
m-3355 -16 c14 -9 25 -23 25 -30 0 -8 5 -14 12 -14 18 0 87 -34 88 -43 0 -10
-46 -4 -83 11 -35 15 -67 15 -67 2 0 -18 -15 -10 -26 14 -14 31 -7 76 13 76 7
0 25 -7 38 -16z m2140 -23 c3 -5 1 -12 -5 -16 -5 -3 -10 1 -10 9 0 18 6 21 15
7z m1719 -17 c9 -8 16 -20 16 -26 0 -6 8 -20 17 -30 14 -15 14 -21 4 -27 -10
-7 -9 -9 3 -14 13 -5 13 -9 -1 -39 -18 -38 -42 -68 -55 -68 -4 0 -8 17 -8 38
0 57 -10 83 -29 78 -62 -19 -71 -18 -71 1 0 22 76 103 96 103 7 0 20 -7 28
-16z m331 -44 c-3 -5 -14 -10 -23 -10 -15 0 -15 2 -2 10 20 13 33 13 25 0z
m-4217 -49 c5 -30 -19 -47 -34 -25 -16 20 -6 56 15 52 9 -2 18 -14 19 -27z
m4547 -1 c3 -5 -1 -10 -9 -10 -9 0 -16 5 -16 10 0 6 4 10 9 10 6 0 13 -4 16
-10z m-4422 -19 c-2 -6 4 -11 12 -11 8 0 14 -3 13 -7 -1 -5 4 -21 11 -38 16
-36 8 -172 -11 -213 -15 -31 -61 -39 -134 -24 -25 5 -44 6 -44 1 0 -5 5 -9 10
-9 6 0 22 -8 37 -17 23 -16 24 -17 7 -24 -33 -13 -53 -10 -53 9 0 9 -4 37 -10
62 -13 58 -14 210 -1 230 7 11 10 11 10 2 0 -10 5 -10 22 2 12 9 33 16 46 16
13 0 20 4 17 10 -3 6 3 10 14 10 11 0 23 5 26 11 9 13 31 5 28 -10z m4439 -53
c-1 -15 -9 -42 -17 -60 l-14 -33 0 35 c0 51 -3 70 -13 70 -4 0 -8 5 -8 11 0 6
12 9 28 7 23 -3 27 -7 24 -30z m-731 -25 c11 -11 -36 -102 -57 -110 -7 -2 -21
0 -31 6 -16 9 -16 10 -2 11 9 0 17 6 16 13 0 6 1 31 1 54 2 41 3 43 33 39 17
-2 35 -8 40 -13z m-311 -17 c0 -13 -7 -29 -15 -36 -19 -16 -34 -5 -17 12 7 7
12 20 12 30 0 10 5 18 10 18 6 0 10 -11 10 -24z m90 -118 c0 -6 10 -22 22 -35
15 -16 18 -27 12 -33 -15 -15 -44 -1 -44 20 0 10 -7 23 -15 30 -8 7 -12 16 -9
21 8 13 34 11 34 -3z m1110 -86 c0 -13 -29 -36 -37 -29 -3 4 0 13 7 22 10 12
9 20 -4 40 -24 37 -19 40 9 7 14 -17 25 -34 25 -40z m-2106 38 c13 -12 -46 -6
-69 8 -17 9 -14 10 20 5 22 -3 44 -9 49 -13z m1111 -50 c-3 -5 -13 -10 -21
-10 -8 0 -14 5 -14 10 0 6 9 10 21 10 11 0 17 -4 14 -10z m-1380 -10 c7 -12
-2 -12 -30 0 -19 8 -19 9 2 9 12 1 25 -3 28 -9z m859 -15 c19 -15 19 -15 -2
-15 -13 0 -34 -7 -48 -16 -19 -13 -28 -14 -37 -5 -7 7 -8 11 0 11 6 0 13 9 16
20 6 24 43 26 71 5z m-7 -61 c-3 -3 -12 -4 -19 -1 -8 3 -5 6 6 6 11 1 17 -2
13 -5z m-3144 -44 c85 -68 112 -103 85 -112 -8 -3 -6 -11 5 -29 12 -18 15 -46
14 -119 l-2 -95 -30 0 c-16 0 -36 -4 -43 -9 -9 -5 -18 -2 -27 10 -9 13 -17 16
-24 9 -16 -17 -1 -60 35 -99 19 -21 33 -40 30 -43 -2 -2 -30 8 -61 23 l-57 28
7 43 c4 25 2 43 -3 43 -12 0 -26 122 -17 150 4 11 13 19 21 18 21 -4 74 35 74
55 0 9 -7 17 -15 17 -8 0 -15 -6 -15 -14 0 -20 -16 -29 -40 -21 -16 5 -20 15
-20 51 0 24 4 44 8 44 5 0 7 14 4 30 -4 28 -2 30 27 30 18 0 37 -4 44 -10z
m3037 -25 l35 -14 -40 6 c-22 3 -44 9 -49 14 -15 13 13 10 54 -6z m127 -31
c-3 -3 -12 -4 -19 -1 -8 3 -5 6 6 6 11 1 17 -2 13 -5z m134 -25 c49 -12 88
-23 86 -25 -6 -6 -155 24 -175 35 -25 15 -11 13 89 -10z m-174 -5 c-3 -3 -12
-4 -19 -1 -8 3 -5 6 6 6 11 1 17 -2 13 -5z m158 -34 c43 -12 54 -17 30 -14
-22 3 -71 14 -110 24 -43 12 -54 17 -30 14 22 -3 72 -14 110 -24z m165 0 c11
-8 7 -9 -15 -4 -37 8 -45 14 -19 14 10 0 26 -5 34 -10z m107 -34 c13 -13 -44
-5 -63 8 -17 13 -15 14 19 6 21 -4 41 -11 44 -14z m-170 8 c-3 -3 -12 -4 -19
-1 -8 3 -5 6 6 6 11 1 17 -2 13 -5z m220 -20 c-3 -3 -12 -4 -19 -1 -8 3 -5 6
6 6 11 1 17 -2 13 -5z m319 -84 c18 -12 63 -27 99 -35 70 -14 104 -30 44 -19
-116 19 -188 38 -210 55 l-24 19 29 0 c16 0 43 -9 62 -20z m334 -79 c19 -5 71
-16 115 -26 44 -9 108 -23 142 -31 34 -8 73 -14 87 -14 14 0 27 -4 30 -9 3 -5
33 -7 66 -5 55 4 60 3 60 -16 0 -13 7 -20 19 -20 11 0 22 -4 25 -9 6 -9 -11
-7 -109 11 -33 6 -78 12 -100 13 -22 1 -48 6 -58 10 -9 4 -26 5 -37 2 -11 -3
-20 -1 -20 4 0 5 6 10 13 10 6 1 -10 5 -38 10 -35 6 -52 5 -58 -4 -6 -8 -7 -7
-4 4 4 12 -11 21 -66 38 -111 35 -123 39 -112 40 6 1 26 -3 45 -8z m-4256
-283 c85 -53 96 -66 96 -115 0 -27 -5 -43 -12 -44 -10 0 -10 -2 0 -6 9 -3 12
-38 12 -124 0 -103 3 -127 24 -179 15 -36 21 -62 15 -66 -6 -3 -55 -8 -110
-11 -92 -6 -99 -5 -99 13 -5 171 -2 543 4 552 10 17 13 16 70 -20z m2028 -46
c6 -6 17 -12 24 -12 6 0 25 -7 40 -16 l29 -16 -28 5 c-25 4 -28 2 -24 -17 2
-11 8 -29 12 -39 5 -12 3 -16 -6 -13 -8 2 -30 7 -49 10 -25 4 -31 3 -20 -4 12
-8 11 -10 -8 -10 -13 0 -21 4 -17 10 3 5 0 19 -7 30 -11 19 -10 24 8 39 l22
18 -26 15 -26 16 32 -2 c17 -1 37 -7 44 -14z m131 -56 c4 -10 1 -13 -9 -9 -15
6 -19 23 -5 23 5 0 11 -7 14 -14z m77 -36 c0 -5 -2 -10 -4 -10 -3 0 -8 5 -11
10 -3 6 -1 10 4 10 6 0 11 -4 11 -10z m-152 -183 c17 -14 15 -27 -5 -27 -22 0
-83 36 -83 49 0 10 67 -7 88 -22z m1047 -195 c-3 -3 -11 0 -18 7 -9 10 -8 11
6 5 10 -3 15 -9 12 -12z m135 -52 c8 -5 11 -10 5 -10 -5 0 -17 5 -25 10 -8 5
-10 10 -5 10 6 0 17 -5 25 -10z m75 -31 c22 -10 29 -16 15 -13 -28 7 -80 33
-65 33 6 0 28 -9 50 -20z m-175 -19 c0 -5 -4 -10 -10 -10 -5 0 -10 5 -10 10 0
6 5 10 10 10 6 0 10 -4 10 -10z m-35 -20 c8 -13 -5 -13 -25 0 -13 8 -13 10 2
10 9 0 20 -4 23 -10z m100 0 c13 -5 14 -9 5 -9 -8 0 -24 4 -35 9 -13 5 -14 9
-5 9 8 0 24 -4 35 -9z m215 0 c8 -5 11 -10 5 -10 -5 0 -17 5 -25 10 -8 5 -10
10 -5 10 6 0 17 -5 25 -10z m319 -54 c-13 -14 -33 9 -25 30 6 16 8 16 21 -2 8
-12 10 -23 4 -28z m-489 24 c0 -5 -2 -10 -4 -10 -3 0 -8 5 -11 10 -3 6 -1 10
4 10 6 0 11 -4 11 -10z m-39 -17 c13 -15 12 -15 -8 -4 -24 12 -29 21 -14 21 5
0 15 -7 22 -17z m84 -1 c-3 -3 -11 0 -18 7 -9 10 -8 11 6 5 10 -3 15 -9 12
-12z m271 1 c26 -3 44 -1 48 6 4 6 20 11 37 11 24 0 29 -4 29 -25 0 -14 5 -25
10 -25 6 0 10 -6 10 -13 0 -8 22 -24 50 -37 65 -30 56 -39 -11 -11 -58 25 -82
22 -77 -11 3 -24 70 -66 138 -88 46 -15 162 -66 199 -87 2 -2 -2 -9 -9 -18 -8
-10 -9 -15 -1 -15 6 0 11 -5 11 -11 0 -6 -8 -9 -17 -6 -40 13 -110 39 -138 52
-17 7 -52 23 -79 35 -61 26 -55 36 8 15 26 -9 53 -14 59 -12 10 3 -26 23 -108
56 -11 5 -49 22 -85 39 -36 16 -83 35 -105 42 -50 16 -139 64 -127 68 5 1 33
-6 61 -18 65 -25 103 -27 94 -3 -4 11 -3 14 5 9 7 -4 12 -4 12 1 0 4 -18 17
-41 27 -41 20 -68 45 -34 32 11 -4 38 -10 61 -13z m-296 -24 c0 -14 -17 -10
-23 5 -4 10 -1 13 9 9 7 -3 14 -9 14 -14z m105 0 c15 -15 -18 -10 -45 6 l-25
15 30 -6 c17 -4 34 -11 40 -15z m89 -70 c59 -30 103 -59 61 -42 -44 19 -111
52 -125 62 -30 21 4 10 64 -20z m-1269 -269 c-3 -5 -10 -10 -16 -10 -5 0 -9 5
-9 10 0 6 7 10 16 10 8 0 12 -4 9 -10z m-19 -35 c10 -8 14 -15 8 -15 -5 0 -19
7 -30 15 -10 8 -14 15 -8 15 5 0 19 -7 30 -15z m69 -15 c3 -5 -3 -10 -14 -10
-12 0 -21 5 -21 10 0 6 6 10 14 10 8 0 18 -4 21 -10z m-146 -14 c27 -15 60
-46 47 -46 -14 0 -63 29 -75 44 -17 20 -8 20 28 2z m2918 -108 c6 -22 15 -32
25 -30 11 2 17 -8 20 -33 3 -27 0 -35 -12 -35 -19 0 -80 49 -61 50 9 0 12 11
9 40 -4 48 6 52 19 8z m-292 -57 c134 -52 209 -87 213 -99 3 -9 -8 -7 -34 6
-22 11 -75 34 -119 52 -111 46 -163 81 -60 41z m-2220 -31 c3 -5 -1 -10 -9
-10 -9 0 -16 5 -16 10 0 6 4 10 9 10 6 0 13 -4 16 -10z m2366 -88 c-7 -2 -18
1 -23 6 -8 8 -4 9 13 5 13 -4 18 -8 10 -11z m-2106 -71 c10 -17 -9 -20 -30 -5
-18 14 -18 14 2 14 12 0 24 -4 28 -9z m100 -111 c3 -5 1 -10 -4 -10 -6 0 -11
5 -11 10 0 6 2 10 4 10 3 0 8 -4 11 -10z m-2625 -70 c3 -30 11 -65 18 -78 7
-13 12 -33 10 -45 -3 -21 -5 -20 -38 13 -65 66 -120 130 -120 139 0 11 67 30
100 28 23 -2 25 -7 30 -57z m2702 30 c26 -16 52 -30 56 -30 4 0 23 -14 42 -31
19 -17 27 -26 18 -19 -9 6 -32 19 -50 29 -48 25 -80 44 -107 64 -38 28 -13 20
41 -13z m706 -363 c31 -15 28 -31 -5 -22 -31 7 -53 23 -53 36 0 9 21 4 58 -14z
m727 -363 c28 -26 29 -39 2 -28 -18 7 -52 54 -39 54 5 0 21 -11 37 -26z m155
-14 c13 -11 20 -23 15 -28 -4 -4 -10 -1 -12 6 -6 16 -18 15 -38 -4 -10 -10
-22 -13 -33 -8 -15 6 -14 8 6 11 14 3 22 12 22 24 0 24 11 24 40 -1z m0 -50
c0 -5 -4 -10 -9 -10 -6 0 -13 5 -16 10 -3 6 1 10 9 10 9 0 16 -4 16 -10z
m-134 -477 c-7 -7 -26 7 -26 19 0 6 6 6 15 -2 9 -7 13 -15 11 -17z m779 -63
c3 -6 -1 -7 -9 -4 -18 7 -21 14 -7 14 6 0 13 -4 16 -10z m236 -147 c13 -17 13
-17 -6 -3 -11 8 -22 16 -24 17 -2 2 0 3 6 3 6 0 17 -8 24 -17z m-3031 -78 c10
-12 10 -15 -1 -15 -11 0 -11 -2 1 -10 12 -8 12 -10 -3 -16 -10 -4 -16 -13 -13
-20 8 -21 -7 -17 -21 6 -11 16 -10 21 7 30 25 13 26 27 3 33 -15 4 -15 5 -2 6
9 0 22 -6 29 -14z m-2398 -56 c13 -23 29 -53 36 -66 8 -14 12 -26 10 -28 -1
-1 -22 28 -45 66 -24 38 -38 69 -33 69 5 0 20 -19 32 -41z m2308 1 c0 -5 -9
-10 -20 -10 -11 0 -20 5 -20 10 0 6 9 10 20 10 11 0 20 -4 20 -10z m-2343 -61
c2 -16 -1 -19 -9 -11 -5 5 -7 15 -4 21 10 15 12 14 13 -10z m164 -144 c94
-146 107 -168 102 -182 -8 -22 -16 -15 -52 45 -130 219 -165 315 -50 137z
m2294 75 c-3 -5 -12 -10 -18 -10 -7 0 -6 4 3 10 19 12 23 12 15 0z m-105 -27
c0 -15 -2 -15 -24 -7 -23 9 -20 23 4 21 11 -1 20 -7 20 -14z m-206 -57 c3 -14
-2 -39 -14 -62 -10 -21 -19 -33 -20 -26 0 6 -6 12 -13 12 -13 0 -47 49 -47 68
0 11 44 30 71 31 10 1 19 -9 23 -23z m-1981 -93 c55 -83 79 -131 74 -146 -2
-6 -28 29 -58 79 -91 149 -103 196 -16 67z m2647 -133 c24 -13 43 -47 31 -54
-10 -7 -71 41 -71 55 0 12 17 11 40 -1z"/>
<path d="M150 4320 c0 -5 5 -10 10 -10 6 0 10 5 10 10 0 6 -4 10 -10 10 -5 0
-10 -4 -10 -10z"/>
<path d="M4045 2850 c3 -5 8 -10 11 -10 2 0 4 5 4 10 0 6 -5 10 -11 10 -5 0
-7 -4 -4 -10z"/>
<path d="M4100 2830 c0 -6 7 -10 15 -10 8 0 15 2 15 4 0 2 -7 6 -15 10 -8 3
-15 1 -15 -4z"/>
<path d="M4140 2810 c0 -5 5 -10 10 -10 6 0 10 5 10 10 0 6 -4 10 -10 10 -5 0
-10 -4 -10 -10z"/>
<path d="M2241 304 c0 -11 3 -14 6 -6 3 7 2 16 -1 19 -3 4 -6 -2 -5 -13z"/>
<path d="M851 8873 c0 -57 13 -108 26 -110 14 -3 16 94 2 102 -5 4 -9 15 -9
26 0 10 -4 19 -10 19 -5 0 -10 -17 -9 -37z"/>
<path d="M30 8845 c0 -10 7 -15 18 -13 21 4 19 22 -2 26 -10 2 -16 -3 -16 -13z"/>
<path d="M160 8808 c0 -19 2 -20 10 -8 13 19 13 30 0 30 -5 0 -10 -10 -10 -22z"/>
<path d="M2605 8697 c-11 -7 -22 -14 -25 -17 -3 -3 -21 -16 -40 -28 -33 -20
-34 -22 -10 -21 14 0 34 5 46 12 30 17 74 54 74 61 0 10 -23 6 -45 -7z"/>
<path d="M2463 8599 c-13 -5 -23 -13 -23 -19 0 -18 31 -24 45 -9 20 20 5 38
-22 28z"/>
<path d="M6024 7913 c-12 -38 -27 -62 -37 -60 -6 1 -13 -11 -16 -27 -3 -17 -9
-29 -14 -28 -11 3 -76 -59 -82 -79 -4 -11 -12 -19 -20 -19 -7 0 -15 -5 -17
-12 -3 -7 -10 -8 -17 -3 -9 5 -12 21 -8 47 4 31 2 41 -11 46 -13 5 -10 8 13
13 29 6 29 7 -8 8 -23 1 -45 -5 -54 -15 -10 -10 -26 -14 -43 -11 -19 4 -29 0
-38 -14 -7 -10 -21 -19 -32 -19 -10 0 -24 -8 -29 -17 -9 -16 -12 -16 -20 -3
-12 17 -105 24 -132 10 -31 -17 -39 -138 -13 -179 16 -23 19 -23 93 -15 107
12 203 9 294 -10 53 -11 99 -14 143 -10 l64 7 0 203 c0 112 -2 204 -5 204 -3
0 -8 -8 -11 -17z m-68 -330 c-10 -11 -86 -11 -86 -1 0 4 21 8 47 8 25 0 43 -3
39 -7z"/>
<path d="M5660 7001 c0 -6 5 -11 11 -11 8 0 8 -4 -1 -15 -20 -24 -2 -35 48
-28 50 6 59 10 64 32 2 8 -7 15 -22 17 -14 2 -42 6 -62 10 -25 4 -38 2 -38 -5z"/>
<path d="M3187 6962 c-34 -35 -34 -44 0 -40 22 2 29 10 34 36 8 39 1 40 -34 4z"/>
<path d="M5960 6919 c-19 -4 -74 -11 -123 -15 -180 -13 -230 -19 -234 -29 -2
-6 35 -11 95 -12 65 -2 92 1 82 7 -10 7 17 10 85 10 109 0 148 7 138 23 -4 6
2 8 15 5 15 -4 22 -2 22 8 0 16 -26 17 -80 3z m-22 -26 c-10 -2 -26 -2 -35 0
-10 3 -2 5 17 5 19 0 27 -2 18 -5z"/>
<path d="M3408 6887 c-15 -12 -32 -35 -38 -50 -5 -16 -15 -25 -20 -22 -6 4 -8
11 -5 16 4 5 0 18 -8 29 -14 20 -14 20 -50 -8 -27 -21 -37 -37 -42 -69 -7 -51
-17 -53 -88 -18 -55 28 -70 23 -65 -24 4 -31 48 -45 98 -31 19 6 49 10 65 10
54 0 5 -19 -68 -26 -51 -5 -72 -11 -80 -25 -14 -23 -24 -24 -43 -5 -24 25 -84
-3 -84 -38 0 -24 11 -24 425 25 99 12 183 26 186 32 4 5 14 7 22 4 8 -3 46 -1
84 4 97 15 107 16 218 29 55 7 102 14 104 16 2 2 -3 14 -12 28 -20 29 -67 42
-98 25 -29 -15 -194 -25 -185 -11 3 5 -4 33 -15 61 l-22 51 -31 -19 c-49 -30
-101 -36 -123 -14 -26 25 -70 53 -85 53 -7 0 -25 -10 -40 -23z m52 -118 c0
-20 3 -21 70 -14 44 4 70 3 70 -3 0 -5 -6 -9 -12 -9 -20 2 -158 -14 -174 -20
-8 -3 -14 0 -14 6 0 6 9 11 20 11 15 0 20 7 20 25 0 14 5 25 10 25 6 0 10 -9
10 -21z"/>
<path d="M5860 6844 c-58 -7 -228 -26 -379 -43 -150 -17 -276 -33 -280 -35 -3
-2 -69 -9 -146 -16 -77 -6 -180 -17 -230 -25 -49 -7 -126 -17 -170 -20 -111
-9 -143 -12 -280 -29 -310 -39 -615 -62 -615 -47 0 6 18 11 41 11 24 0 38 4
34 10 -4 6 8 10 30 10 22 0 34 4 30 10 -4 6 5 5 20 -2 19 -8 28 -9 33 -1 4 6
29 14 55 18 26 4 46 9 44 12 -4 4 -99 -4 -287 -22 -43 -4 -110 -15 -130 -21
-29 -10 13 -24 53 -17 25 4 37 2 37 -6 0 -15 -49 -34 -72 -28 -10 3 -21 1 -24
-4 -3 -5 -17 -9 -31 -9 -15 0 -24 -2 -21 -5 6 -6 184 8 443 35 110 11 286 30
390 40 304 32 465 49 540 60 117 15 420 48 600 65 94 8 224 22 290 31 66 8
139 17 163 20 23 3 42 9 42 15 0 11 -46 10 -180 -7z"/>
<path d="M2934 6797 c-50 -51 -51 -63 -1 -26 25 19 46 40 47 47 0 19 -13 13
-46 -21z"/>
<path d="M5228 6823 c7 -3 16 -2 19 1 4 3 -2 6 -13 5 -11 0 -14 -3 -6 -6z"/>
<path d="M5709 6764 c-6 -8 -21 -14 -33 -14 -17 0 -18 2 -6 10 13 8 13 10 -2
10 -23 0 -68 -21 -68 -32 0 -12 14 -10 28 4 9 9 18 9 36 0 17 -8 27 -8 32 -1
3 6 16 8 28 5 14 -3 28 1 38 13 14 17 13 18 -13 19 -15 0 -33 -6 -40 -14z"/>
<path d="M5500 6745 c0 -3 12 -10 27 -16 21 -8 30 -6 42 6 14 13 11 15 -27 15
-23 0 -42 -2 -42 -5z"/>
<path d="M3012 6708 c5 -15 48 -18 48 -3 0 6 -11 11 -26 13 -18 3 -25 0 -22
-10z"/>
<path d="M2824 6622 c-17 -15 -38 -26 -49 -24 -15 3 -17 1 -9 -8 13 -14 107
-3 98 11 -3 5 0 9 6 9 6 0 8 5 4 11 -3 6 0 15 7 20 11 7 9 9 -6 9 -11 0 -34
-12 -51 -28z"/>
<path d="M3510 6639 c0 -13 14 -16 40 -9 24 6 24 7 -7 11 -18 3 -33 2 -33 -2z"/>
<path d="M3400 6619 c0 -7 -11 -9 -32 -5 -19 3 -50 -1 -73 -9 l-40 -14 43 -1
c26 0 41 4 37 10 -4 6 11 7 39 4 29 -4 46 -3 46 4 0 6 16 8 43 5 23 -3 40 -3
37 -1 -3 3 -26 9 -52 12 -34 5 -48 4 -48 -5z"/>
<path d="M2013 6603 c-17 -6 -16 -33 1 -33 7 0 16 9 19 20 5 20 2 22 -20 13z"/>
<path d="M3503 6573 c9 -2 25 -2 35 0 9 3 1 5 -18 5 -19 0 -27 -2 -17 -5z"/>
<path d="M2227 6550 c-17 -13 -40 -20 -71 -20 -28 0 -46 -5 -46 -11 0 -9 22
-10 78 -6 100 8 115 13 101 38 -13 24 -30 24 -62 -1z"/>
<path d="M3350 6560 c-10 -7 2 -8 40 -4 30 4 57 8 59 10 10 9 -86 3 -99 -6z"/>
<path d="M3258 6543 c7 -3 16 -2 19 1 4 3 -2 6 -13 5 -11 0 -14 -3 -6 -6z"/>
<path d="M2038 6533 c7 -3 16 -2 19 1 4 3 -2 6 -13 5 -11 0 -14 -3 -6 -6z"/>
<path d="M3133 6533 c9 -2 23 -2 30 0 6 3 -1 5 -18 5 -16 0 -22 -2 -12 -5z"/>
<path d="M2595 6510 c3 -5 1 -10 -5 -10 -6 0 -9 -4 -6 -9 3 -5 -3 -11 -14 -14
-11 -3 -22 -1 -25 4 -4 5 -13 5 -23 -1 -9 -5 -75 -14 -147 -20 -71 -7 -157
-15 -190 -20 -105 -15 100 -4 265 14 80 9 199 21 265 27 66 6 122 13 125 16 7
6 -183 -5 -203 -13 -11 -4 -17 -1 -17 9 0 8 6 18 13 20 6 3 -1 6 -16 6 -16 1
-26 -3 -22 -9z"/>
<path d="M2978 6513 c12 -2 32 -2 45 0 12 2 2 4 -23 4 -25 0 -35 -2 -22 -4z"/>
<path d="M2878 6503 c12 -2 32 -2 45 0 12 2 2 4 -23 4 -25 0 -35 -2 -22 -4z"/>
<path d="M1898 6493 c7 -3 16 -2 19 1 4 3 -2 6 -13 5 -11 0 -14 -3 -6 -6z"/>
<path d="M2557 6429 c7 -7 15 -10 18 -7 3 3 -2 9 -12 12 -14 6 -15 5 -6 -5z"/>
<path d="M2068 6423 c6 -2 18 -2 25 0 6 3 1 5 -13 5 -14 0 -19 -2 -12 -5z"/>
<path d="M3468 6123 c7 -3 16 -2 19 1 4 3 -2 6 -13 5 -11 0 -14 -3 -6 -6z"/>
<path d="M3153 5904 c-8 -22 5 -30 23 -12 14 14 14 16 -1 21 -9 4 -18 1 -22
-9z"/>
<path d="M3517 5890 c-20 -16 -36 -21 -57 -16 -22 4 -32 1 -39 -12 -5 -10 -6
-24 -2 -30 10 -17 81 -28 81 -14 0 6 12 22 26 35 14 14 24 32 22 42 -3 15 -6
15 -31 -5z"/>
<path d="M3218 5879 c-10 -5 -18 -17 -18 -24 0 -8 -7 -15 -15 -15 -8 0 -15 -4
-15 -9 0 -17 38 0 66 30 28 29 18 39 -18 18z"/>
<path d="M2480 5506 c0 -13 11 -16 55 -16 30 0 55 5 55 10 0 6 -8 10 -17 10
-10 0 -35 3 -55 6 -31 5 -38 4 -38 -10z"/>
<path d="M5130 5460 c-12 -8 -10 -10 8 -10 13 0 20 4 17 10 -7 12 -6 12 -25 0z"/>
<path d="M4883 5353 c9 -2 25 -2 35 0 9 3 1 5 -18 5 -19 0 -27 -2 -17 -5z"/>
<path d="M4648 5343 c7 -3 16 -2 19 1 4 3 -2 6 -13 5 -11 0 -14 -3 -6 -6z"/>
<path d="M4815 5340 c3 -5 11 -10 16 -10 6 0 7 5 4 10 -3 6 -11 10 -16 10 -6
0 -7 -4 -4 -10z"/>
<path d="M4928 5333 c7 -3 16 -2 19 1 4 3 -2 6 -13 5 -11 0 -14 -3 -6 -6z"/>
<path d="M3200 5121 c0 -16 -12 -44 -30 -66 -34 -43 -37 -55 -12 -54 60 3 66
11 67 82 0 48 -3 67 -12 67 -8 0 -13 -12 -13 -29z"/>
<path d="M2920 5071 c-18 -34 16 -92 35 -61 3 6 22 10 41 10 34 0 48 22 22 33
-7 3 -30 12 -50 21 -35 15 -38 15 -48 -3z"/>
<path d="M2427 5046 c-3 -8 2 -16 14 -19 21 -6 22 -5 13 17 -8 20 -20 21 -27
2z"/>
<path d="M3650 4869 c0 -5 5 -7 10 -4 6 3 10 8 10 11 0 2 -4 4 -10 4 -5 0 -10
-5 -10 -11z"/>
<path d="M2828 4443 c7 -3 16 -2 19 1 4 3 -2 6 -13 5 -11 0 -14 -3 -6 -6z"/>
<path d="M5710 4365 c0 -24 23 -66 34 -62 19 6 19 50 0 64 -23 17 -34 16 -34
-2z"/>
<path d="M5659 4324 c-11 -14 -10 -18 6 -30 25 -19 32 -18 38 6 7 28 -26 46
-44 24z"/>
<path d="M2888 4113 c7 -3 16 -2 19 1 4 3 -2 6 -13 5 -11 0 -14 -3 -6 -6z"/>
<path d="M4950 4060 c0 -6 7 -10 15 -10 8 0 15 2 15 4 0 2 -7 6 -15 10 -8 3
-15 1 -15 -4z"/>
<path d="M3385 4011 c-3 -5 -1 -12 4 -15 13 -8 42 4 35 15 -7 12 -31 12 -39 0z"/>
<path d="M4961 4004 c0 -11 3 -14 6 -6 3 7 2 16 -1 19 -3 4 -6 -2 -5 -13z"/>
<path d="M3296 3769 c-39 -46 -34 -62 12 -36 31 16 38 25 34 44 -6 31 -15 29
-46 -8z"/>
<path d="M3153 3731 l-22 -18 39 -22 39 -22 11 21 c14 26 5 54 -14 47 -7 -3
-17 -2 -22 3 -5 5 -19 1 -31 -9z"/>
<path d="M4397 3699 c-6 -24 20 -68 41 -69 13 0 14 0 18 -88 3 -59 15 -92 34
-92 26 0 160 160 160 190 0 9 -207 80 -234 80 -7 0 -16 -10 -19 -21z"/>
<path d="M4690 3580 c0 -5 5 -10 10 -10 6 0 10 5 10 10 0 6 -4 10 -10 10 -5 0
-10 -4 -10 -10z"/>
<path d="M4906 3562 c6 -4 14 -15 17 -26 7 -18 8 -18 27 -1 16 14 17 20 8 27
-16 10 -67 10 -52 0z"/>
<path d="M5007 3533 c-10 -9 -9 -28 5 -60 6 -15 10 -35 9 -45 -1 -9 3 -19 9
-23 17 -11 11 -35 -21 -82 -32 -49 -38 -112 -10 -121 8 -3 12 1 9 9 -7 20 17
63 46 82 16 11 23 23 19 36 -6 25 11 35 58 33 37 -2 119 -31 119 -42 0 -3 17
-25 39 -48 l38 -43 68 12 c37 6 87 9 111 6 29 -3 44 -1 45 7 0 6 2 39 6 73 6
74 12 69 -152 108 -97 23 -195 25 -195 4 0 -5 -10 -5 -22 0 -13 5 -22 16 -20
25 2 10 -4 16 -18 16 -11 0 -20 7 -20 15 0 22 -106 55 -123 38z"/>
<path d="M5230 3239 c0 -16 20 -49 29 -49 5 0 4 14 -2 30 -11 29 -27 41 -27
19z"/>
<path d="M5004 3185 c-9 -24 22 -53 38 -37 9 9 10 17 2 29 -15 24 -33 27 -40
8z"/>
<path d="M5195 3055 c-16 -13 -40 -25 -54 -27 -33 -4 -32 -33 1 -106 l24 -52
21 22 c12 13 29 54 37 91 25 107 21 116 -29 72z"/>
<path d="M2430 3015 c0 -14 5 -25 10 -25 6 0 10 4 10 9 0 5 3 16 6 25 4 11 1
16 -10 16 -10 0 -16 -9 -16 -25z"/>
<path d="M3037 2949 c-32 -17 -38 -17 -64 -4 -36 19 -63 19 -63 0 0 -9 12 -18
28 -21 41 -8 78 -59 86 -120 5 -41 3 -53 -9 -58 -8 -3 -15 -15 -15 -26 0 -30
14 -17 39 35 12 25 26 45 31 45 6 0 10 10 10 23 0 12 12 42 26 66 13 25 23 50
20 56 -8 21 -52 23 -89 4z"/>
<path d="M4298 2923 c7 -3 16 -2 19 1 4 3 -2 6 -13 5 -11 0 -14 -3 -6 -6z"/>
<path d="M5420 2853 c1 -14 27 -43 39 -43 7 0 9 5 6 10 -3 6 0 10 7 10 7 0 0
7 -16 15 -32 17 -36 18 -36 8z"/>
<path d="M3337 2801 c-3 -16 -13 -36 -22 -44 -14 -15 -13 -18 20 -31 20 -9 55
-16 78 -17 64 -3 117 -21 149 -51 17 -16 35 -28 40 -28 16 0 47 -43 48 -66 0
-31 -21 -52 -67 -64 -24 -6 -43 -13 -43 -16 0 -2 7 -16 16 -30 14 -20 15 -30
6 -49 -7 -14 -17 -25 -24 -26 -7 0 -31 -2 -53 -5 -22 -2 -55 -4 -73 -4 -37 0
-75 -17 -67 -29 2 -5 44 -12 91 -16 71 -6 91 -11 109 -29 33 -33 83 -53 152
-60 35 -4 76 -12 93 -18 22 -7 34 -7 44 1 16 13 85 6 215 -23 84 -19 92 -23
89 -39 -4 -20 26 -57 45 -57 10 0 26 -4 35 -9 9 -4 32 -11 51 -15 l35 -6 -25
26 -24 27 50 -7 50 -6 -29 22 c-16 13 -38 30 -50 40 -29 22 -11 36 22 17 58
-33 68 -38 95 -44 15 -3 27 -12 27 -20 0 -8 6 -18 14 -22 8 -4 15 -12 15 -18
1 -5 12 -14 26 -18 19 -7 32 -3 59 18 65 49 137 46 231 -10 31 -19 59 -35 61
-35 6 0 46 81 42 85 -6 6 -438 211 -509 241 -24 11 -87 40 -139 66 -52 27 -96
43 -98 38 -6 -17 -19 -11 -25 10 -7 27 -87 30 -87 3 0 -9 -10 -27 -22 -40 -21
-22 -13 -34 9 -12 8 8 17 8 32 -1 13 -6 45 -9 76 -6 30 2 56 0 57 -5 4 -27 1
-33 -17 -35 -11 -1 -49 -5 -85 -9 -79 -8 -93 -12 -85 -25 3 -6 50 -10 106 -10
54 0 98 -3 98 -7 -1 -5 0 -12 1 -18 7 -30 3 -42 -20 -57 -30 -21 -50 -23 -50
-4 0 16 -29 25 -90 27 l-45 2 55 7 c37 4 44 7 23 8 -18 1 -33 6 -33 11 0 5
-18 7 -40 4 -28 -4 -40 -2 -40 7 0 7 -6 10 -14 7 -8 -3 -17 0 -20 6 -30 60
-44 72 -92 81 -35 7 -57 18 -76 40 -15 17 -26 36 -24 41 2 6 -2 19 -9 28 -8
12 -10 30 -5 58 10 51 3 77 -27 107 -28 28 -130 82 -155 82 -10 0 -46 14 -80
30 -78 38 -94 38 -101 1z m304 -427 c10 -13 10 -17 -2 -25 -18 -11 -59 -12
-59 0 0 5 -3 16 -6 25 -8 22 49 22 67 0z m630 -81 c13 -17 13 -17 -6 -3 -11 8
-22 16 -24 17 -2 2 0 3 6 3 6 0 17 -8 24 -17z"/>
<path d="M5495 2820 c4 -6 11 -8 16 -5 14 9 11 15 -7 15 -8 0 -12 -5 -9 -10z"/>
<path d="M3440 2520 c0 -11 2 -20 4 -20 2 0 10 -2 18 -5 8 -3 13 3 14 20 2 18
-3 25 -17 25 -12 0 -19 -7 -19 -20z"/>
<path d="M3295 2510 c3 -5 11 -10 16 -10 6 0 7 5 4 10 -3 6 -11 10 -16 10 -6
0 -7 -4 -4 -10z"/>
<path d="M3970 2494 c0 -8 5 -12 10 -9 6 3 10 10 10 16 0 5 -4 9 -10 9 -5 0
-10 -7 -10 -16z"/>
<path d="M3268 2308 c12 -6 22 -15 22 -20 0 -4 7 -8 15 -8 8 0 15 6 15 14 0
16 -22 26 -53 25 l-22 0 23 -11z"/>
<path d="M2685 2098 c4 -13 9 -38 12 -56 3 -18 9 -34 13 -37 7 -4 60 57 60 69
0 9 -63 46 -79 46 -9 0 -11 -7 -6 -22z"/>
<path d="M3936 2103 c-11 -11 -7 -22 14 -33 16 -9 24 -7 36 5 9 9 15 17 13 19
-10 8 -57 15 -63 9z"/>
<path d="M4021 2078 c-7 -17 -4 -28 9 -42 21 -22 111 -39 142 -27 20 7 20 9
-11 24 -19 9 -38 14 -42 11 -5 -3 -22 8 -38 25 -34 37 -49 39 -60 9z"/>
<path d="M2794 1963 c-24 -26 -41 -49 -39 -51 10 -10 63 21 75 44 8 13 17 24
22 24 4 0 8 7 8 15 0 27 -22 16 -66 -32z"/>
<path d="M4405 2000 c3 -5 11 -10 16 -10 6 0 7 5 4 10 -3 6 -11 10 -16 10 -6
0 -7 -4 -4 -10z"/>
<path d="M4445 1990 c-3 -5 -1 -10 4 -10 6 0 11 5 11 10 0 6 -2 10 -4 10 -3 0
-8 -4 -11 -10z"/>
<path d="M4188 1983 c7 -3 16 -2 19 1 4 3 -2 6 -13 5 -11 0 -14 -3 -6 -6z"/>
<path d="M2900 1914 c-25 -19 -49 -44 -54 -55 -5 -10 -13 -19 -18 -19 -4 0 -8
-4 -8 -10 0 -5 6 -10 14 -10 7 0 16 -9 19 -21 6 -21 10 -21 67 -1 12 4 11 1
-2 -15 -18 -19 -17 -20 60 -31 76 -12 135 -8 158 10 7 5 30 6 53 2 24 -4 41
-3 41 3 0 13 -78 68 -110 78 -14 4 -33 16 -43 26 -10 11 -35 28 -57 39 -21 11
-41 24 -45 30 -10 17 -28 11 -75 -26z"/>
<path d="M2745 1760 c3 -5 10 -10 16 -10 5 0 9 5 9 10 0 6 -7 10 -16 10 -8 0
-12 -4 -9 -10z"/>
<path d="M5910 1623 c0 -3 10 -21 22 -41 24 -39 40 -110 26 -118 -5 -3 -5 -11
2 -19 7 -9 7 -21 0 -39 -15 -40 -13 -109 3 -103 6 2 12 16 12 31 -1 21 3 26
17 23 10 -3 18 -1 18 5 0 5 7 16 15 24 11 11 15 38 15 102 l0 87 -32 18 c-38
20 -98 38 -98 30z"/>
<path d="M3020 1545 c0 -3 8 -14 17 -25 18 -21 43 -27 43 -10 0 6 -7 10 -15
10 -9 0 -18 7 -21 15 -6 14 -24 22 -24 10z"/>
<path d="M2950 1530 c0 -5 5 -10 10 -10 6 0 10 5 10 10 0 6 -4 10 -10 10 -5 0
-10 -4 -10 -10z"/>
<path d="M5130 1523 c0 -5 -11 -13 -25 -20 -20 -9 -31 -8 -55 4 -30 14 -32 14
-66 -20 -35 -34 -38 -57 -8 -57 8 0 14 7 14 15 0 21 17 19 29 -4 6 -10 21 -21
33 -24 13 -4 31 -20 41 -37 10 -16 27 -30 37 -30 11 0 22 -10 26 -22 3 -13 15
-31 25 -41 16 -15 19 -15 19 -2 0 8 7 15 15 15 8 0 15 -4 15 -10 0 -18 18 -10
23 10 4 15 0 20 -14 20 -12 0 -19 7 -19 19 0 11 -4 23 -10 26 -5 3 -10 1 -10
-6 0 -7 -3 -9 -6 -6 -4 4 4 24 18 45 l26 38 -48 47 c-47 46 -60 55 -60 40z"/>
<path d="M2840 1500 c6 -11 16 -20 22 -20 6 0 3 9 -7 20 -10 11 -20 20 -22 20
-2 0 1 -9 7 -20z"/>
<path d="M2990 1500 c0 -5 4 -10 9 -10 5 0 13 -9 16 -20 3 -11 13 -20 20 -20
8 0 18 -6 22 -12 11 -17 67 -48 87 -48 28 0 17 19 -18 34 -18 8 -37 19 -41 25
-7 12 -80 61 -90 61 -3 0 -5 -4 -5 -10z"/>
<path d="M3380 1503 c0 -3 8 -24 18 -44 19 -43 37 -50 47 -19 4 11 23 29 43
41 20 11 29 18 19 15 -9 -3 -28 -1 -42 4 -20 7 -25 6 -25 -5 0 -19 -14 -19
-30 0 -13 15 -30 20 -30 8z"/>
<path d="M2930 1486 c0 -9 5 -16 10 -16 6 0 10 4 10 9 0 6 -4 13 -10 16 -5 3
-10 -1 -10 -9z"/>
<path d="M3092 1489 c2 -7 12 -13 21 -15 23 -3 21 3 -4 17 -17 8 -20 8 -17 -2z"/>
<path d="M2799 1473 c10 -19 57 -63 67 -63 13 0 64 -60 64 -75 0 -8 -2 -15 -5
-15 -3 0 -33 27 -67 60 -34 33 -65 60 -70 60 -18 0 -5 -20 44 -68 29 -28 50
-54 46 -57 -3 -3 -25 12 -49 34 -23 23 -46 41 -51 41 -4 0 -8 7 -8 15 0 9 -9
15 -25 15 -14 0 -25 -5 -25 -11 0 -5 5 -7 10 -4 16 10 35 -6 19 -16 -12 -8
-11 -11 1 -20 12 -8 10 -9 -8 -4 -22 6 -23 5 -20 -42 3 -46 4 -48 36 -51 41
-4 48 -21 28 -61 -9 -16 -16 -41 -16 -54 0 -21 6 -25 46 -31 26 -3 62 -6 81
-6 19 0 43 -5 53 -10 26 -14 158 -1 176 17 15 15 10 38 -6 28 -18 -11 -30 31
-16 51 12 16 11 22 -6 46 -10 16 -23 28 -27 28 -16 0 -56 -42 -56 -58 0 -36
-30 -17 -39 26 -5 23 -13 42 -17 42 -14 0 -10 20 6 36 16 16 20 11 -73 89 -13
11 -38 32 -55 48 -36 31 -52 35 -38 10z m1 -133 c0 -5 -4 -10 -10 -10 -5 0
-10 5 -10 10 0 6 5 10 10 10 6 0 10 -4 10 -10z m130 -34 c0 -3 -4 -8 -10 -11
-5 -3 -10 -1 -10 4 0 6 5 11 10 11 6 0 10 -2 10 -4z"/>
<path d="M2876 1473 c-12 -12 -6 -25 9 -19 8 3 15 1 15 -3 0 -5 7 -11 15 -15
8 -3 15 -2 15 3 0 12 -46 41 -54 34z"/>
<path d="M2960 1468 c0 -9 7 -18 15 -22 8 -3 15 -12 15 -21 0 -8 7 -15 15 -15
8 0 15 -4 15 -10 0 -13 -3 -13 -35 2 -14 6 -25 15 -25 20 0 4 -4 8 -10 8 -5 0
-10 -7 -10 -15 0 -8 5 -15 10 -15 6 0 10 -8 11 -17 0 -19 59 -72 59 -54 0 6
12 8 28 5 22 -4 29 0 39 22 14 30 7 39 -52 70 -16 9 -40 26 -52 37 -19 17 -23
18 -23 5z"/>
<path d="M2640 1461 c0 -32 -42 -100 -62 -103 -25 -4 -37 -28 -14 -28 8 0 20
-10 27 -22 10 -18 8 -24 -11 -38 -27 -21 -21 -50 10 -50 12 0 19 4 16 8 -3 5
7 15 22 22 15 7 34 16 42 20 11 5 16 28 18 89 2 71 0 82 -15 88 -10 4 -21 11
-25 17 -5 7 -8 6 -8 -3z"/>
<path d="M2770 1459 c0 -5 5 -7 10 -4 6 3 10 8 10 11 0 2 -4 4 -10 4 -5 0 -10
-5 -10 -11z"/>
<path d="M4608 1463 c7 -3 16 -2 19 1 4 3 -2 6 -13 5 -11 0 -14 -3 -6 -6z"/>
<path d="M3160 1425 c0 -8 2 -15 4 -15 2 0 11 -3 20 -6 10 -4 16 -1 16 9 0 8
-7 18 -16 21 -22 9 -24 8 -24 -9z"/>
<path d="M5260 1416 c0 -9 5 -16 10 -16 6 0 10 4 10 9 0 6 -4 13 -10 16 -5 3
-10 -1 -10 -9z"/>
<path d="M5222 1384 c1 -9 9 -19 16 -22 9 -3 13 2 10 14 -1 9 -9 19 -16 22 -9
3 -13 -2 -10 -14z"/>
<path d="M2362 1381 c2 -7 7 -12 11 -12 12 1 9 15 -3 20 -7 2 -11 -2 -8 -8z"/>
<path d="M5010 1350 c0 -5 7 -10 15 -10 8 0 15 5 15 10 0 6 -7 10 -15 10 -8 0
-15 -4 -15 -10z"/>
<path d="M3668 1295 c-16 -35 0 -51 38 -38 33 11 44 33 17 34 -10 0 -13 3 -5
6 17 7 5 23 -19 23 -11 0 -24 -11 -31 -25z"/>
<path d="M4953 1283 c-16 -32 -16 -43 -3 -43 15 0 28 33 21 52 -5 14 -8 13
-18 -9z"/>
<path d="M3923 1287 c3 -9 -5 -12 -29 -9 -19 2 -34 2 -34 -1 0 -2 25 -24 55
-47 53 -41 57 -42 108 -36 82 11 86 19 28 55 -28 17 -60 31 -71 31 -11 0 -20
5 -20 10 0 6 -9 10 -21 10 -13 0 -19 -5 -16 -13z"/>
<path d="M2670 1240 c0 -5 5 -10 11 -10 5 0 7 5 4 10 -3 6 -8 10 -11 10 -2 0
-4 -4 -4 -10z"/>
<path d="M4065 1150 c-3 -5 -1 -10 4 -10 6 0 11 5 11 10 0 6 -2 10 -4 10 -3 0
-8 -4 -11 -10z"/>
<path d="M5672 1078 c5 -15 28 -23 28 -10 0 5 -7 13 -16 16 -10 4 -14 1 -12
-6z"/>
<path d="M5760 1070 c0 -5 5 -10 11 -10 5 0 7 5 4 10 -3 6 -8 10 -11 10 -2 0
-4 -4 -4 -10z"/>
<path d="M3195 881 c-8 -15 23 -33 45 -26 22 7 27 -4 8 -23 -9 -9 -8 -12 8
-12 30 0 46 15 42 40 -3 20 -9 24 -50 26 -26 2 -50 -1 -53 -5z"/>
<path d="M3968 873 c-16 -8 -28 -18 -28 -23 0 -11 80 -24 106 -18 18 5 18 5
-1 13 -11 4 -27 16 -35 25 -13 15 -18 15 -42 3z"/>
<path d="M3477 842 c-19 -20 -22 -49 -8 -71 13 -21 38 1 43 40 6 38 -13 55
-35 31z"/>
<path d="M3895 840 c-3 -5 1 -10 9 -10 9 0 16 5 16 10 0 6 -4 10 -9 10 -6 0
-13 -4 -16 -10z"/>
<path d="M2420 820 c0 -5 5 -10 11 -10 5 0 7 5 4 10 -3 6 -8 10 -11 10 -2 0
-4 -4 -4 -10z"/>
<path d="M2474 809 c-10 -17 8 -28 39 -22 37 7 35 33 -2 33 -17 0 -33 -5 -37
-11z"/>
<path d="M3833 803 c9 -2 25 -2 35 0 9 3 1 5 -18 5 -19 0 -27 -2 -17 -5z"/>
<path d="M3170 790 c0 -5 7 -10 15 -10 8 0 15 5 15 10 0 6 -7 10 -15 10 -8 0
-15 -4 -15 -10z"/>
<path d="M4210 784 c0 -8 5 -12 10 -9 6 3 10 10 10 16 0 5 -4 9 -10 9 -5 0
-10 -7 -10 -16z"/>
<path d="M2416 764 c-4 -11 -1 -14 11 -12 9 2 18 9 21 16 6 18 -25 15 -32 -4z"/>
<path d="M4260 765 c0 -8 7 -15 15 -15 8 0 15 7 15 15 0 8 -7 15 -15 15 -8 0
-15 -7 -15 -15z"/>
<path d="M4728 773 c-14 -26 0 -46 42 -63 75 -29 110 -34 110 -16 0 9 -6 16
-12 16 -7 0 -27 13 -44 29 -30 29 -88 49 -96 34z"/>
<path d="M2483 759 c-40 -11 -46 -34 -7 -25 15 4 39 10 55 13 16 3 29 9 29 14
0 11 -35 10 -77 -2z"/>
<path d="M3170 750 c-12 -8 -12 -10 3 -16 21 -8 35 2 21 16 -5 5 -15 6 -24 0z"/>
<path d="M3383 607 c-10 -22 -8 -25 35 -43 54 -22 99 -63 108 -100 6 -22 11
-25 33 -19 29 7 63 35 43 35 -16 0 -102 83 -102 99 0 8 -6 11 -16 7 -8 -3 -12
-2 -9 4 5 8 -54 40 -75 40 -4 0 -12 -11 -17 -23z"/>
<path d="M4440 580 c0 -5 5 -10 11 -10 5 0 7 5 4 10 -3 6 -8 10 -11 10 -2 0
-4 -4 -4 -10z"/>
<path d="M2944 538 c-6 -20 27 -58 51 -58 21 0 5 55 -20 67 -21 9 -25 8 -31
-9z"/>
<path d="M3767 523 c-17 -16 -5 -33 23 -33 21 0 30 5 30 16 0 8 -4 13 -9 9 -5
-3 -12 -1 -16 5 -7 12 -19 13 -28 3z"/>
<path d="M3031 504 c0 -11 3 -14 6 -6 3 7 2 16 -1 19 -3 4 -6 -2 -5 -13z"/>
<path d="M5200 464 c0 -9 7 -14 17 -12 25 5 28 28 4 28 -12 0 -21 -6 -21 -16z"/>
<path d="M4095 375 c-28 -32 -32 -40 -22 -56 8 -13 8 -22 1 -29 -13 -13 -74 9
-74 27 0 7 -6 13 -14 13 -7 0 -27 7 -42 15 -30 15 -54 19 -54 9 0 -3 23 -28
51 -55 46 -45 105 -82 135 -84 6 0 18 -5 25 -11 8 -7 24 -15 37 -18 12 -4 22
-11 22 -16 0 -4 25 -16 55 -26 56 -17 56 -17 71 4 11 16 26 22 53 22 l38 0 -1
53 -1 52 -45 1 c-75 3 -74 2 -60 19 10 13 9 15 -9 15 -14 0 -21 6 -21 20 0 13
-7 20 -19 20 -12 0 -25 11 -33 28 -20 41 -53 40 -93 -3z m195 -125 c0 -5 -4
-10 -10 -10 -5 0 -10 5 -10 10 0 6 5 10 10 10 6 0 10 -4 10 -10z m-145 -10
c10 -16 -3 -29 -25 -23 -16 4 -18 8 -9 19 14 17 25 18 34 4z"/>
<path d="M5098 333 c-34 -5 -36 -18 -5 -27 38 -10 51 -8 38 7 -6 8 -8 17 -4
20 3 4 4 6 2 6 -2 -1 -16 -4 -31 -6z"/>
<path d="M4316 311 c-3 -4 6 -6 19 -3 14 2 25 6 25 8 0 8 -39 4 -44 -5z"/>
<path d="M5010 175 c-8 -10 -9 -19 -3 -27 6 -7 13 -28 16 -45 5 -25 3 -33 -8
-33 -8 0 -15 -4 -15 -10 0 -5 -5 -10 -11 -10 -5 0 -9 8 -8 18 3 30 -1 42 -12
42 -8 0 -8 -5 1 -15 18 -22 -3 -18 -28 5 -12 11 -27 20 -35 20 -7 0 -23 9 -35
20 -24 22 -52 26 -52 8 0 -15 93 -98 109 -98 6 0 27 -10 48 -22 47 -27 222
-41 208 -17 -18 32 -39 48 -67 54 -18 4 -32 15 -35 26 -3 10 -9 19 -14 19 -5
0 -9 12 -9 26 0 14 4 23 10 19 6 -3 10 -1 10 4 0 6 -7 11 -15 11 -8 0 -15 5
-15 10 0 15 -26 12 -40 -5z"/>
<path d="M4852 29 c2 -7 10 -15 17 -17 8 -3 12 1 9 9 -2 7 -10 15 -17 17 -8 3
-12 -1 -9 -9z"/>
<path d="M5370 15 c0 -8 5 -15 10 -15 6 0 10 7 10 15 0 8 -4 15 -10 15 -5 0
-10 -7 -10 -15z"/>
</g>
</svg>
